<svg width="548" height="91" viewBox="0 0 548 91" fill="none" xmlns="http://www.w3.org/2000/svg">
<rect y="6.31396" width="65.2051" height="66.5924" rx="13" fill="#006380"/>
<path d="M22.8911 42.5586C22.4795 42.5586 22.0772 42.6806 21.735 42.9093C21.3928 43.138 21.126 43.463 20.9685 43.8432C20.811 44.2235 20.7698 44.6419 20.8501 45.0456C20.9304 45.4493 21.1286 45.8201 21.4196 46.1111C21.7107 46.4021 22.0815 46.6003 22.4851 46.6806C22.8888 46.7609 23.3072 46.7197 23.6875 46.5622C24.0678 46.4047 24.3928 46.138 24.6214 45.7958C24.8501 45.4535 24.9721 45.0512 24.9721 44.6396C24.9721 44.0877 24.7529 43.5584 24.3626 43.1681C23.9724 42.7778 23.4431 42.5586 22.8911 42.5586ZM22.8911 45.6801C22.6853 45.6801 22.4842 45.6191 22.3131 45.5048C22.1419 45.3904 22.0086 45.2279 21.9298 45.0378C21.8511 44.8477 21.8305 44.6385 21.8706 44.4366C21.9108 44.2348 22.0099 44.0494 22.1554 43.9039C22.3009 43.7583 22.4863 43.6592 22.6881 43.6191C22.89 43.5789 23.0992 43.5996 23.2893 43.6783C23.4794 43.7571 23.642 43.8904 23.7563 44.0615C23.8706 44.2326 23.9316 44.4338 23.9316 44.6396C23.9316 44.9156 23.822 45.1802 23.6269 45.3754C23.4318 45.5705 23.1671 45.6801 22.8911 45.6801Z" fill="white"/>
<path d="M43.7012 42.5586C43.2897 42.5586 42.8873 42.6806 42.5451 42.9093C42.2029 43.138 41.9362 43.463 41.7786 43.8432C41.6211 44.2235 41.5799 44.6419 41.6602 45.0456C41.7405 45.4493 41.9387 45.8201 42.2298 46.1111C42.5208 46.4021 42.8916 46.6003 43.2953 46.6806C43.6989 46.7609 44.1174 46.7197 44.4976 46.5622C44.8779 46.4047 45.2029 46.138 45.4315 45.7958C45.6602 45.4535 45.7823 45.0512 45.7823 44.6396C45.7823 44.0877 45.563 43.5584 45.1727 43.1681C44.7825 42.7778 44.2532 42.5586 43.7012 42.5586ZM43.7012 45.6801C43.4955 45.6801 43.2943 45.6191 43.1232 45.5048C42.9521 45.3904 42.8187 45.2279 42.7399 45.0378C42.6612 44.8477 42.6406 44.6385 42.6807 44.4366C42.7209 44.2348 42.82 44.0494 42.9655 43.9039C43.111 43.7583 43.2964 43.6592 43.4983 43.6191C43.7001 43.5789 43.9093 43.5996 44.0994 43.6783C44.2896 43.7571 44.4521 43.8904 44.5664 44.0615C44.6807 44.2326 44.7418 44.4338 44.7418 44.6396C44.7418 44.9156 44.6321 45.1802 44.437 45.3754C44.2419 45.5705 43.9772 45.6801 43.7012 45.6801Z" fill="white"/>
<path d="M28.614 45.1597H37.9785V46.2002H28.614V45.1597Z" fill="white"/>
<path d="M28.614 43.0786H37.9785V44.1191H28.614V43.0786Z" fill="white"/>
<path d="M31.7355 35.2749H34.857V36.3154H31.7355V35.2749Z" fill="white"/>
<path d="M48.9038 39.957V38.9165C48.9026 38.503 48.7377 38.1067 48.4453 37.8143C48.1529 37.5218 47.7566 37.357 47.343 37.3558H45.2828L44.2059 33.5787L43.8833 32.2937C43.7987 31.9563 43.6038 31.6568 43.3295 31.4429C43.0552 31.2289 42.7173 31.1127 42.3694 31.1127H37.9785V29.0317C37.9776 28.756 37.8678 28.4918 37.6728 28.2969C37.4778 28.1019 37.2137 27.992 36.938 27.9912H29.6544C29.3787 27.992 29.1145 28.1019 28.9196 28.2969C28.7246 28.4918 28.6147 28.756 28.6139 29.0317V31.1127H24.223C23.8751 31.1127 23.5372 31.2289 23.2629 31.4429C22.9886 31.6568 22.7937 31.9563 22.709 32.2937L22.3917 33.5735L21.3096 37.3558H19.2494C18.8358 37.357 18.4395 37.5218 18.1471 37.8143C17.8547 38.1067 17.6898 38.503 17.6886 38.9165V39.957C17.6894 40.2206 17.7572 40.4796 17.8855 40.7098C18.0138 40.9401 18.1985 41.1339 18.4222 41.2733C17.9518 41.7565 17.6887 42.4042 17.6886 43.0786V49.3216C17.6893 49.5399 17.736 49.7555 17.8257 49.9545C17.9153 50.1535 18.0459 50.3314 18.2089 50.4766V52.4431C18.2101 52.8567 18.3749 53.2529 18.6674 53.5454C18.9598 53.8378 19.3561 54.0026 19.7696 54.0039H23.9316C24.3452 54.0026 24.7415 53.8378 25.0339 53.5454C25.3263 53.2529 25.4912 52.8567 25.4924 52.4431V50.8824H41.1V52.4431C41.1012 52.8567 41.2661 53.2529 41.5585 53.5454C41.8509 53.8378 42.2472 54.0026 42.6607 54.0039H46.8228C47.2363 54.0026 47.6326 53.8378 47.925 53.5454C48.2175 53.2529 48.3823 52.8567 48.3835 52.4431V50.4766C48.5465 50.3314 48.6771 50.1535 48.7667 49.9545C48.8564 49.7555 48.9031 49.5399 48.9038 49.3216V43.0786C48.9037 42.4042 48.6405 41.7565 48.1702 41.2733C48.3939 41.1339 48.5786 40.9401 48.7069 40.7098C48.8352 40.4796 48.9029 40.2206 48.9038 39.957ZM29.6544 29.0317H36.938V31.1127H29.6544V29.0317ZM23.7183 32.5486C23.7462 32.4358 23.8111 32.3356 23.9025 32.264C23.994 32.1923 24.1068 32.1533 24.223 32.1532H42.3694C42.4856 32.1533 42.5984 32.1923 42.6899 32.264C42.7813 32.3356 42.8462 32.4358 42.8741 32.5486L43.0353 33.1937H23.5571L23.7183 32.5486ZM23.2813 34.2342H43.3111L45.0903 40.4773H30.1279C30.0056 39.7502 29.6296 39.09 29.0667 38.6139C28.5038 38.1378 27.7904 37.8765 27.0532 37.8765C26.3159 37.8765 25.6025 38.1378 25.0396 38.6139C24.4767 39.09 24.1007 39.7502 23.9785 40.4773H21.5021L23.2813 34.2342ZM29.0613 40.4773H25.045C25.1586 40.0309 25.4177 39.635 25.7813 39.3523C26.145 39.0696 26.5925 38.9161 27.0532 38.9161C27.5138 38.9161 27.9613 39.0696 28.325 39.3523C28.6886 39.635 28.9477 40.0309 29.0613 40.4773ZM18.7291 38.9165C18.7291 38.7785 18.7839 38.6462 18.8815 38.5487C18.979 38.4511 19.1114 38.3963 19.2494 38.3963H21.013L20.4199 40.4773H19.2494C19.1114 40.4773 18.979 40.4225 18.8815 40.3249C18.7839 40.2273 18.7291 40.095 18.7291 39.957V38.9165ZM24.4519 52.4431C24.4519 52.5811 24.3971 52.7134 24.2995 52.811C24.2019 52.9086 24.0696 52.9634 23.9316 52.9634H19.7696C19.6316 52.9634 19.4993 52.9086 19.4017 52.811C19.3042 52.7134 19.2494 52.5811 19.2494 52.4431V50.8824H24.4519V52.4431ZM47.343 52.4431C47.343 52.5811 47.2882 52.7134 47.1906 52.811C47.0931 52.9086 46.9608 52.9634 46.8228 52.9634H42.6607C42.5228 52.9634 42.3904 52.9086 42.2929 52.811C42.1953 52.7134 42.1405 52.5811 42.1405 52.4431V50.8824H47.343V52.4431ZM47.8633 49.3216C47.8633 49.4596 47.8085 49.5919 47.7109 49.6895C47.6133 49.787 47.481 49.8418 47.343 49.8418H19.2494C19.1114 49.8418 18.979 49.787 18.8815 49.6895C18.7839 49.5919 18.7291 49.4596 18.7291 49.3216V48.8013H47.8633V49.3216ZM47.8633 47.7608H18.7291V43.0786C18.7303 42.665 18.8952 42.2687 19.1876 41.9763C19.48 41.6839 19.8763 41.519 20.2899 41.5178H46.3025C46.7161 41.519 47.1123 41.6839 47.4048 41.9763C47.6972 42.2687 47.862 42.665 47.8633 43.0786V47.7608ZM47.8633 39.957C47.8633 40.095 47.8085 40.2273 47.7109 40.3249C47.6133 40.4225 47.481 40.4773 47.343 40.4773H46.1725L45.5794 38.3963H47.343C47.481 38.3963 47.6133 38.4511 47.7109 38.5487C47.8085 38.6462 47.8633 38.7785 47.8633 38.9165V39.957Z" fill="white"/>
<path d="M95.9017 51.4482V40.0264H97.2299V50.2607H102.3V51.4482H95.9017ZM111.449 47.1514C111.449 47.8545 111.357 48.4821 111.175 49.0342C110.993 49.5863 110.73 50.0524 110.386 50.4326C110.042 50.8128 109.626 51.1045 109.136 51.3076C108.652 51.5055 108.102 51.6045 107.488 51.6045C106.915 51.6045 106.389 51.5055 105.91 51.3076C105.436 51.1045 105.024 50.8128 104.675 50.4326C104.331 50.0524 104.063 49.5863 103.87 49.0342C103.683 48.4821 103.589 47.8545 103.589 47.1514C103.589 46.2139 103.748 45.417 104.066 44.7607C104.384 44.0993 104.837 43.5967 105.425 43.2529C106.019 42.904 106.725 42.7295 107.542 42.7295C108.324 42.7295 109.006 42.904 109.589 43.2529C110.178 43.6019 110.634 44.1071 110.956 44.7686C111.285 45.4248 111.449 46.2191 111.449 47.1514ZM104.933 47.1514C104.933 47.8389 105.024 48.4352 105.206 48.9404C105.389 49.4456 105.67 49.8363 106.05 50.1123C106.43 50.3883 106.92 50.5264 107.519 50.5264C108.113 50.5264 108.6 50.3883 108.98 50.1123C109.365 49.8363 109.649 49.4456 109.831 48.9404C110.014 48.4352 110.105 47.8389 110.105 47.1514C110.105 46.4691 110.014 45.8805 109.831 45.3857C109.649 44.8857 109.368 44.5003 108.988 44.2295C108.607 43.9587 108.115 43.8232 107.511 43.8232C106.62 43.8232 105.967 44.1175 105.55 44.7061C105.139 45.2946 104.933 46.1097 104.933 47.1514ZM117.581 42.7295C117.753 42.7295 117.933 42.7399 118.12 42.7607C118.308 42.7764 118.475 42.7998 118.62 42.8311L118.456 44.0342C118.316 43.9977 118.16 43.9691 117.988 43.9482C117.816 43.9274 117.654 43.917 117.503 43.917C117.16 43.917 116.834 43.9873 116.527 44.1279C116.225 44.2633 115.959 44.4613 115.73 44.7217C115.501 44.9769 115.321 45.2868 115.191 45.6514C115.061 46.0107 114.995 46.4118 114.995 46.8545V51.4482H113.691V42.8857H114.769L114.91 44.4639H114.964C115.141 44.1462 115.355 43.8571 115.605 43.5967C115.855 43.3311 116.144 43.1201 116.472 42.9639C116.805 42.8076 117.175 42.7295 117.581 42.7295ZM123.535 42.7295C124.264 42.7295 124.889 42.891 125.41 43.2139C125.93 43.5368 126.329 43.9899 126.605 44.5732C126.881 45.1514 127.019 45.8285 127.019 46.6045V47.4092H121.105C121.12 48.4144 121.37 49.18 121.855 49.7061C122.339 50.2321 123.022 50.4951 123.902 50.4951C124.443 50.4951 124.923 50.4456 125.339 50.3467C125.756 50.2477 126.188 50.1019 126.636 49.9092V51.0498C126.204 51.2425 125.774 51.3831 125.347 51.4717C124.925 51.5602 124.425 51.6045 123.847 51.6045C123.024 51.6045 122.305 51.4378 121.691 51.1045C121.081 50.766 120.607 50.2712 120.269 49.6201C119.93 48.9691 119.761 48.1722 119.761 47.2295C119.761 46.3076 119.915 45.5107 120.222 44.8389C120.535 44.1618 120.972 43.641 121.535 43.2764C122.102 42.9118 122.769 42.7295 123.535 42.7295ZM123.519 43.792C122.826 43.792 122.274 44.0186 121.863 44.4717C121.451 44.9248 121.206 45.5576 121.128 46.3701H125.66C125.654 45.8597 125.574 45.4118 125.417 45.0264C125.266 44.6357 125.035 44.3337 124.722 44.1201C124.41 43.9014 124.009 43.792 123.519 43.792ZM138.519 42.7295C139.462 42.7295 140.173 42.9769 140.652 43.4717C141.131 43.9613 141.37 44.7503 141.37 45.8389V51.4482H140.089V45.9014C140.089 45.2087 139.938 44.6904 139.636 44.3467C139.339 43.9977 138.897 43.8232 138.308 43.8232C137.48 43.8232 136.878 44.0628 136.503 44.542C136.128 45.0212 135.941 45.7269 135.941 46.6592V51.4482H134.652V45.9014C134.652 45.4378 134.584 45.0524 134.449 44.7451C134.318 44.4378 134.12 44.2087 133.855 44.0576C133.594 43.9014 133.264 43.8232 132.863 43.8232C132.295 43.8232 131.839 43.9404 131.495 44.1748C131.152 44.4092 130.902 44.7581 130.745 45.2217C130.594 45.68 130.519 46.2451 130.519 46.917V51.4482H129.222V42.8857H130.269L130.464 44.0967H130.535C130.706 43.7998 130.923 43.5498 131.183 43.3467C131.443 43.1436 131.735 42.9899 132.058 42.8857C132.381 42.7816 132.725 42.7295 133.089 42.7295C133.74 42.7295 134.285 42.8519 134.722 43.0967C135.165 43.3363 135.485 43.7035 135.683 44.1982H135.753C136.035 43.7035 136.42 43.3363 136.91 43.0967C137.399 42.8519 137.936 42.7295 138.519 42.7295ZM149.488 42.8857V51.4482H148.191V42.8857H149.488ZM148.855 39.6826C149.068 39.6826 149.251 39.7529 149.402 39.8936C149.558 40.029 149.636 40.2425 149.636 40.5342C149.636 40.8206 149.558 41.0342 149.402 41.1748C149.251 41.3154 149.068 41.3857 148.855 41.3857C148.631 41.3857 148.443 41.3154 148.292 41.1748C148.147 41.0342 148.074 40.8206 148.074 40.5342C148.074 40.2425 148.147 40.029 148.292 39.8936C148.443 39.7529 148.631 39.6826 148.855 39.6826ZM156.261 42.7295C157.329 42.7295 158.18 43.0967 158.816 43.8311C159.451 44.5654 159.769 45.6696 159.769 47.1436C159.769 48.1175 159.623 48.9352 159.331 49.5967C159.04 50.2581 158.628 50.7581 158.097 51.0967C157.571 51.4352 156.949 51.6045 156.23 51.6045C155.777 51.6045 155.378 51.5446 155.035 51.4248C154.691 51.305 154.397 51.1436 154.152 50.9404C153.907 50.7373 153.704 50.516 153.542 50.2764H153.449C153.464 50.4795 153.482 50.7243 153.503 51.0107C153.529 51.2972 153.542 51.5472 153.542 51.7607V55.2764H152.238V42.8857H153.308L153.48 44.1514H153.542C153.709 43.891 153.912 43.654 154.152 43.4404C154.391 43.2217 154.683 43.0498 155.027 42.9248C155.376 42.7946 155.787 42.7295 156.261 42.7295ZM156.035 43.8232C155.441 43.8232 154.962 43.9378 154.597 44.167C154.238 44.3962 153.975 44.7399 153.808 45.1982C153.641 45.6514 153.553 46.2217 153.542 46.9092V47.1592C153.542 47.8831 153.62 48.4951 153.777 48.9951C153.938 49.4951 154.201 49.8753 154.566 50.1357C154.936 50.3962 155.43 50.5264 156.05 50.5264C156.581 50.5264 157.024 50.3831 157.378 50.0967C157.732 49.8102 157.995 49.4118 158.167 48.9014C158.344 48.3857 158.433 47.7946 158.433 47.1279C158.433 46.1175 158.235 45.3154 157.839 44.7217C157.449 44.1227 156.847 43.8232 156.035 43.8232ZM167.574 49.1045C167.574 49.6514 167.436 50.1123 167.16 50.4873C166.889 50.8571 166.498 51.1357 165.988 51.3232C165.482 51.5107 164.878 51.6045 164.175 51.6045C163.576 51.6045 163.058 51.5576 162.62 51.4639C162.183 51.3701 161.8 51.2373 161.472 51.0654V49.8701C161.821 50.042 162.238 50.1982 162.722 50.3389C163.206 50.4795 163.701 50.5498 164.206 50.5498C164.946 50.5498 165.482 50.43 165.816 50.1904C166.149 49.9508 166.316 49.6253 166.316 49.2139C166.316 48.9795 166.248 48.7738 166.113 48.5967C165.982 48.4144 165.761 48.2399 165.449 48.0732C165.136 47.9014 164.704 47.7139 164.152 47.5107C163.605 47.3024 163.131 47.0967 162.73 46.8936C162.334 46.6852 162.027 46.4326 161.808 46.1357C161.594 45.8389 161.488 45.4535 161.488 44.9795C161.488 44.2555 161.779 43.7008 162.363 43.3154C162.951 42.9248 163.722 42.7295 164.675 42.7295C165.191 42.7295 165.673 42.7816 166.12 42.8857C166.574 42.9847 166.995 43.1201 167.386 43.292L166.949 44.3311C166.594 44.18 166.217 44.0524 165.816 43.9482C165.415 43.8441 165.006 43.792 164.589 43.792C163.99 43.792 163.529 43.891 163.206 44.0889C162.889 44.2868 162.73 44.5576 162.73 44.9014C162.73 45.167 162.803 45.3857 162.949 45.5576C163.1 45.7295 163.339 45.891 163.667 46.042C163.995 46.193 164.428 46.3701 164.964 46.5732C165.501 46.7712 165.964 46.9769 166.355 47.1904C166.745 47.3988 167.045 47.654 167.253 47.9561C167.467 48.2529 167.574 48.6357 167.574 49.1045ZM176.73 42.8857V51.4482H175.667L175.48 50.2451H175.41C175.232 50.542 175.003 50.792 174.722 50.9951C174.441 51.1982 174.123 51.3493 173.769 51.4482C173.42 51.5524 173.048 51.6045 172.652 51.6045C171.975 51.6045 171.407 51.4951 170.949 51.2764C170.49 51.0576 170.144 50.7191 169.91 50.2607C169.68 49.8024 169.566 49.2139 169.566 48.4951V42.8857H170.878V48.4014C170.878 49.1149 171.04 49.6488 171.363 50.0029C171.686 50.3519 172.178 50.5264 172.839 50.5264C173.475 50.5264 173.98 50.4066 174.355 50.167C174.735 49.9274 175.009 49.5758 175.175 49.1123C175.342 48.6436 175.425 48.0706 175.425 47.3936V42.8857H176.73ZM188.769 42.7295C189.712 42.7295 190.423 42.9769 190.902 43.4717C191.381 43.9613 191.62 44.7503 191.62 45.8389V51.4482H190.339V45.9014C190.339 45.2087 190.188 44.6904 189.886 44.3467C189.589 43.9977 189.147 43.8232 188.558 43.8232C187.73 43.8232 187.128 44.0628 186.753 44.542C186.378 45.0212 186.191 45.7269 186.191 46.6592V51.4482H184.902V45.9014C184.902 45.4378 184.834 45.0524 184.699 44.7451C184.568 44.4378 184.37 44.2087 184.105 44.0576C183.844 43.9014 183.514 43.8232 183.113 43.8232C182.545 43.8232 182.089 43.9404 181.745 44.1748C181.402 44.4092 181.152 44.7581 180.995 45.2217C180.844 45.68 180.769 46.2451 180.769 46.917V51.4482H179.472V42.8857H180.519L180.714 44.0967H180.785C180.956 43.7998 181.173 43.5498 181.433 43.3467C181.693 43.1436 181.985 42.9899 182.308 42.8857C182.631 42.7816 182.975 42.7295 183.339 42.7295C183.99 42.7295 184.535 42.8519 184.972 43.0967C185.415 43.3363 185.735 43.7035 185.933 44.1982H186.003C186.285 43.7035 186.67 43.3363 187.16 43.0967C187.649 42.8519 188.186 42.7295 188.769 42.7295ZM201.488 51.6045C200.404 51.6045 199.545 51.2347 198.91 50.4951C198.279 49.7555 197.964 48.6566 197.964 47.1982C197.964 45.7243 198.287 44.6123 198.933 43.8623C199.579 43.1071 200.438 42.7295 201.511 42.7295C201.964 42.7295 202.36 42.7894 202.699 42.9092C203.037 43.029 203.329 43.1904 203.574 43.3936C203.818 43.5915 204.024 43.818 204.191 44.0732H204.285C204.264 43.9118 204.243 43.6904 204.222 43.4092C204.201 43.1279 204.191 42.8988 204.191 42.7217V39.292H205.488V51.4482H204.441L204.245 50.2295H204.191C204.029 50.4847 203.824 50.7165 203.574 50.9248C203.329 51.1331 203.035 51.2998 202.691 51.4248C202.352 51.5446 201.951 51.6045 201.488 51.6045ZM201.691 50.5264C202.607 50.5264 203.256 50.266 203.636 49.7451C204.016 49.2243 204.206 48.4508 204.206 47.4248V47.1904C204.206 46.1019 204.024 45.266 203.66 44.6826C203.3 44.0993 202.644 43.8076 201.691 43.8076C200.894 43.8076 200.298 44.1149 199.902 44.7295C199.506 45.3389 199.308 46.1722 199.308 47.2295C199.308 48.2816 199.503 49.0941 199.894 49.667C200.29 50.2399 200.889 50.5264 201.691 50.5264ZM215.62 47.1514C215.62 47.8545 215.529 48.4821 215.347 49.0342C215.165 49.5863 214.902 50.0524 214.558 50.4326C214.214 50.8128 213.798 51.1045 213.308 51.3076C212.824 51.5055 212.274 51.6045 211.66 51.6045C211.087 51.6045 210.561 51.5055 210.081 51.3076C209.607 51.1045 209.196 50.8128 208.847 50.4326C208.503 50.0524 208.235 49.5863 208.042 49.0342C207.855 48.4821 207.761 47.8545 207.761 47.1514C207.761 46.2139 207.92 45.417 208.238 44.7607C208.555 44.0993 209.009 43.5967 209.597 43.2529C210.191 42.904 210.897 42.7295 211.714 42.7295C212.495 42.7295 213.178 42.904 213.761 43.2529C214.35 43.6019 214.805 44.1071 215.128 44.7686C215.456 45.4248 215.62 46.2191 215.62 47.1514ZM209.105 47.1514C209.105 47.8389 209.196 48.4352 209.378 48.9404C209.561 49.4456 209.842 49.8363 210.222 50.1123C210.602 50.3883 211.092 50.5264 211.691 50.5264C212.285 50.5264 212.772 50.3883 213.152 50.1123C213.537 49.8363 213.821 49.4456 214.003 48.9404C214.186 48.4352 214.277 47.8389 214.277 47.1514C214.277 46.4691 214.186 45.8805 214.003 45.3857C213.821 44.8857 213.54 44.5003 213.16 44.2295C212.779 43.9587 212.287 43.8232 211.683 43.8232C210.792 43.8232 210.139 44.1175 209.722 44.7061C209.311 45.2946 209.105 46.1097 209.105 47.1514ZM219.167 51.4482H217.863V39.292H219.167V51.4482ZM229.292 47.1514C229.292 47.8545 229.201 48.4821 229.019 49.0342C228.837 49.5863 228.574 50.0524 228.23 50.4326C227.886 50.8128 227.469 51.1045 226.98 51.3076C226.495 51.5055 225.946 51.6045 225.331 51.6045C224.759 51.6045 224.232 51.5055 223.753 51.3076C223.279 51.1045 222.868 50.8128 222.519 50.4326C222.175 50.0524 221.907 49.5863 221.714 49.0342C221.527 48.4821 221.433 47.8545 221.433 47.1514C221.433 46.2139 221.592 45.417 221.91 44.7607C222.227 44.0993 222.68 43.5967 223.269 43.2529C223.863 42.904 224.568 42.7295 225.386 42.7295C226.167 42.7295 226.85 42.904 227.433 43.2529C228.022 43.6019 228.477 44.1071 228.8 44.7686C229.128 45.4248 229.292 46.2191 229.292 47.1514ZM222.777 47.1514C222.777 47.8389 222.868 48.4352 223.05 48.9404C223.232 49.4456 223.514 49.8363 223.894 50.1123C224.274 50.3883 224.764 50.5264 225.363 50.5264C225.956 50.5264 226.443 50.3883 226.824 50.1123C227.209 49.8363 227.493 49.4456 227.675 48.9404C227.857 48.4352 227.949 47.8389 227.949 47.1514C227.949 46.4691 227.857 45.8805 227.675 45.3857C227.493 44.8857 227.212 44.5003 226.831 44.2295C226.451 43.9587 225.959 43.8232 225.355 43.8232C224.464 43.8232 223.811 44.1175 223.394 44.7061C222.982 45.2946 222.777 46.1097 222.777 47.1514ZM235.425 42.7295C235.597 42.7295 235.777 42.7399 235.964 42.7607C236.152 42.7764 236.318 42.7998 236.464 42.8311L236.3 44.0342C236.16 43.9977 236.003 43.9691 235.831 43.9482C235.66 43.9274 235.498 43.917 235.347 43.917C235.003 43.917 234.678 43.9873 234.37 44.1279C234.068 44.2633 233.803 44.4613 233.574 44.7217C233.344 44.9769 233.165 45.2868 233.035 45.6514C232.904 46.0107 232.839 46.4118 232.839 46.8545V51.4482H231.535V42.8857H232.613L232.753 44.4639H232.808C232.985 44.1462 233.199 43.8571 233.449 43.5967C233.699 43.3311 233.988 43.1201 234.316 42.9639C234.649 42.8076 235.019 42.7295 235.425 42.7295ZM247.777 49.1045C247.777 49.6514 247.639 50.1123 247.363 50.4873C247.092 50.8571 246.701 51.1357 246.191 51.3232C245.686 51.5107 245.081 51.6045 244.378 51.6045C243.779 51.6045 243.261 51.5576 242.824 51.4639C242.386 51.3701 242.003 51.2373 241.675 51.0654V49.8701C242.024 50.042 242.441 50.1982 242.925 50.3389C243.41 50.4795 243.904 50.5498 244.41 50.5498C245.149 50.5498 245.686 50.43 246.019 50.1904C246.352 49.9508 246.519 49.6253 246.519 49.2139C246.519 48.9795 246.451 48.7738 246.316 48.5967C246.186 48.4144 245.964 48.2399 245.652 48.0732C245.339 47.9014 244.907 47.7139 244.355 47.5107C243.808 47.3024 243.334 47.0967 242.933 46.8936C242.537 46.6852 242.23 46.4326 242.011 46.1357C241.798 45.8389 241.691 45.4535 241.691 44.9795C241.691 44.2555 241.982 43.7008 242.566 43.3154C243.154 42.9248 243.925 42.7295 244.878 42.7295C245.394 42.7295 245.876 42.7816 246.324 42.8857C246.777 42.9847 247.199 43.1201 247.589 43.292L247.152 44.3311C246.798 44.18 246.42 44.0524 246.019 43.9482C245.618 43.8441 245.209 43.792 244.792 43.792C244.193 43.792 243.732 43.891 243.41 44.0889C243.092 44.2868 242.933 44.5576 242.933 44.9014C242.933 45.167 243.006 45.3857 243.152 45.5576C243.303 45.7295 243.542 45.891 243.87 46.042C244.199 46.193 244.631 46.3701 245.167 46.5732C245.704 46.7712 246.167 46.9769 246.558 47.1904C246.949 47.3988 247.248 47.654 247.456 47.9561C247.67 48.2529 247.777 48.6357 247.777 49.1045ZM251.16 42.8857V51.4482H249.863V42.8857H251.16ZM250.527 39.6826C250.74 39.6826 250.923 39.7529 251.074 39.8936C251.23 40.029 251.308 40.2425 251.308 40.5342C251.308 40.8206 251.23 41.0342 251.074 41.1748C250.923 41.3154 250.74 41.3857 250.527 41.3857C250.303 41.3857 250.115 41.3154 249.964 41.1748C249.818 41.0342 249.745 40.8206 249.745 40.5342C249.745 40.2425 249.818 40.029 249.964 39.8936C250.115 39.7529 250.303 39.6826 250.527 39.6826ZM256.675 50.542C256.889 50.542 257.107 50.5238 257.331 50.4873C257.555 50.4508 257.738 50.4066 257.878 50.3545V51.3623C257.727 51.43 257.516 51.4873 257.245 51.5342C256.98 51.5811 256.719 51.6045 256.464 51.6045C256.011 51.6045 255.6 51.5264 255.23 51.3701C254.86 51.2087 254.563 50.9378 254.339 50.5576C254.12 50.1774 254.011 49.6514 254.011 48.9795V43.9014H252.792V43.2686L254.019 42.7607L254.535 40.9014H255.316V42.8857H257.824V43.9014H255.316V48.9404C255.316 49.4769 255.438 49.8779 255.683 50.1436C255.933 50.4092 256.264 50.542 256.675 50.542ZM266.972 42.7451C267.993 42.7451 268.751 42.9743 269.245 43.4326C269.74 43.891 269.988 44.6227 269.988 45.6279V51.4482H269.042L268.792 50.1826H268.73C268.49 50.4951 268.24 50.7581 267.98 50.9717C267.719 51.18 267.417 51.3389 267.074 51.4482C266.735 51.5524 266.318 51.6045 265.824 51.6045C265.303 51.6045 264.839 51.5133 264.433 51.3311C264.032 51.1488 263.714 50.8727 263.48 50.5029C263.251 50.1331 263.136 49.6644 263.136 49.0967C263.136 48.2425 263.475 47.5863 264.152 47.1279C264.829 46.6696 265.86 46.4196 267.245 46.3779L268.722 46.3154V45.792C268.722 45.0524 268.563 44.5342 268.245 44.2373C267.928 43.9404 267.48 43.792 266.902 43.792C266.454 43.792 266.027 43.8571 265.62 43.9873C265.214 44.1175 264.829 44.2712 264.464 44.4482L264.066 43.4639C264.451 43.266 264.894 43.0967 265.394 42.9561C265.894 42.8154 266.42 42.7451 266.972 42.7451ZM268.706 47.2295L267.402 47.2842C266.334 47.3258 265.581 47.5003 265.144 47.8076C264.706 48.1149 264.488 48.5498 264.488 49.1123C264.488 49.6019 264.636 49.9639 264.933 50.1982C265.23 50.4326 265.623 50.5498 266.113 50.5498C266.873 50.5498 267.495 50.3389 267.98 49.917C268.464 49.4951 268.706 48.8623 268.706 48.0186V47.2295ZM281.956 42.7295C282.899 42.7295 283.61 42.9769 284.089 43.4717C284.568 43.9613 284.808 44.7503 284.808 45.8389V51.4482H283.527V45.9014C283.527 45.2087 283.376 44.6904 283.074 44.3467C282.777 43.9977 282.334 43.8232 281.745 43.8232C280.917 43.8232 280.316 44.0628 279.941 44.542C279.566 45.0212 279.378 45.7269 279.378 46.6592V51.4482H278.089V45.9014C278.089 45.4378 278.022 45.0524 277.886 44.7451C277.756 44.4378 277.558 44.2087 277.292 44.0576C277.032 43.9014 276.701 43.8232 276.3 43.8232C275.732 43.8232 275.277 43.9404 274.933 44.1748C274.589 44.4092 274.339 44.7581 274.183 45.2217C274.032 45.68 273.956 46.2451 273.956 46.917V51.4482H272.66V42.8857H273.706L273.902 44.0967H273.972C274.144 43.7998 274.36 43.5498 274.62 43.3467C274.881 43.1436 275.173 42.9899 275.495 42.8857C275.818 42.7816 276.162 42.7295 276.527 42.7295C277.178 42.7295 277.722 42.8519 278.16 43.0967C278.602 43.3363 278.923 43.7035 279.12 44.1982H279.191C279.472 43.7035 279.857 43.3363 280.347 43.0967C280.837 42.8519 281.373 42.7295 281.956 42.7295ZM290.769 42.7295C291.498 42.7295 292.123 42.891 292.644 43.2139C293.165 43.5368 293.563 43.9899 293.839 44.5732C294.115 45.1514 294.253 45.8285 294.253 46.6045V47.4092H288.339C288.355 48.4144 288.605 49.18 289.089 49.7061C289.574 50.2321 290.256 50.4951 291.136 50.4951C291.678 50.4951 292.157 50.4456 292.574 50.3467C292.99 50.2477 293.423 50.1019 293.87 49.9092V51.0498C293.438 51.2425 293.009 51.3831 292.581 51.4717C292.16 51.5602 291.66 51.6045 291.081 51.6045C290.259 51.6045 289.54 51.4378 288.925 51.1045C288.316 50.766 287.842 50.2712 287.503 49.6201C287.165 48.9691 286.995 48.1722 286.995 47.2295C286.995 46.3076 287.149 45.5107 287.456 44.8389C287.769 44.1618 288.206 43.641 288.769 43.2764C289.337 42.9118 290.003 42.7295 290.769 42.7295ZM290.753 43.792C290.061 43.792 289.509 44.0186 289.097 44.4717C288.686 44.9248 288.441 45.5576 288.363 46.3701H292.894C292.889 45.8597 292.808 45.4118 292.652 45.0264C292.501 44.6357 292.269 44.3337 291.956 44.1201C291.644 43.9014 291.243 43.792 290.753 43.792ZM299.222 50.542C299.436 50.542 299.654 50.5238 299.878 50.4873C300.102 50.4508 300.285 50.4066 300.425 50.3545V51.3623C300.274 51.43 300.063 51.4873 299.792 51.5342C299.527 51.5811 299.266 51.6045 299.011 51.6045C298.558 51.6045 298.147 51.5264 297.777 51.3701C297.407 51.2087 297.11 50.9378 296.886 50.5576C296.667 50.1774 296.558 49.6514 296.558 48.9795V43.9014H295.339V43.2686L296.566 42.7607L297.081 40.9014H297.863V42.8857H300.37V43.9014H297.863V48.9404C297.863 49.4769 297.985 49.8779 298.23 50.1436C298.48 50.4092 298.811 50.542 299.222 50.542ZM303.644 49.5889L303.745 49.7686C303.652 50.1488 303.532 50.555 303.386 50.9873C303.245 51.4196 303.089 51.8519 302.917 52.2842C302.751 52.7217 302.581 53.1305 302.41 53.5107H301.441C301.55 53.0941 301.657 52.654 301.761 52.1904C301.865 51.7321 301.959 51.279 302.042 50.8311C302.131 50.3779 302.201 49.9639 302.253 49.5889H303.644ZM313.886 51.6045C313.115 51.6045 312.436 51.4456 311.847 51.1279C311.259 50.8102 310.8 50.3258 310.472 49.6748C310.144 49.0238 309.98 48.2035 309.98 47.2139C309.98 46.1774 310.152 45.3311 310.495 44.6748C310.844 44.0133 311.324 43.5238 311.933 43.2061C312.542 42.8883 313.235 42.7295 314.011 42.7295C314.438 42.7295 314.85 42.7738 315.245 42.8623C315.647 42.9456 315.975 43.0524 316.23 43.1826L315.839 44.2686C315.579 44.1644 315.277 44.0706 314.933 43.9873C314.594 43.904 314.277 43.8623 313.98 43.8623C313.386 43.8623 312.891 43.9899 312.495 44.2451C312.105 44.5003 311.811 44.8753 311.613 45.3701C311.42 45.8649 311.324 46.4743 311.324 47.1982C311.324 47.891 311.417 48.4821 311.605 48.9717C311.798 49.4613 312.081 49.8363 312.456 50.0967C312.837 50.3519 313.311 50.4795 313.878 50.4795C314.331 50.4795 314.74 50.4326 315.105 50.3389C315.469 50.2399 315.8 50.1253 316.097 49.9951V51.1514C315.811 51.2972 315.49 51.4092 315.136 51.4873C314.787 51.5654 314.37 51.6045 313.886 51.6045ZM325.511 47.1514C325.511 47.8545 325.42 48.4821 325.238 49.0342C325.055 49.5863 324.792 50.0524 324.449 50.4326C324.105 50.8128 323.688 51.1045 323.199 51.3076C322.714 51.5055 322.165 51.6045 321.55 51.6045C320.977 51.6045 320.451 51.5055 319.972 51.3076C319.498 51.1045 319.087 50.8128 318.738 50.4326C318.394 50.0524 318.126 49.5863 317.933 49.0342C317.745 48.4821 317.652 47.8545 317.652 47.1514C317.652 46.2139 317.811 45.417 318.128 44.7607C318.446 44.0993 318.899 43.5967 319.488 43.2529C320.081 42.904 320.787 42.7295 321.605 42.7295C322.386 42.7295 323.068 42.904 323.652 43.2529C324.24 43.6019 324.696 44.1071 325.019 44.7686C325.347 45.4248 325.511 46.2191 325.511 47.1514ZM318.995 47.1514C318.995 47.8389 319.087 48.4352 319.269 48.9404C319.451 49.4456 319.732 49.8363 320.113 50.1123C320.493 50.3883 320.982 50.5264 321.581 50.5264C322.175 50.5264 322.662 50.3883 323.042 50.1123C323.428 49.8363 323.712 49.4456 323.894 48.9404C324.076 48.4352 324.167 47.8389 324.167 47.1514C324.167 46.4691 324.076 45.8805 323.894 45.3857C323.712 44.8857 323.43 44.5003 323.05 44.2295C322.67 43.9587 322.178 43.8232 321.574 43.8232C320.683 43.8232 320.029 44.1175 319.613 44.7061C319.201 45.2946 318.995 46.1097 318.995 47.1514ZM331.808 42.7295C332.824 42.7295 333.592 42.9795 334.113 43.4795C334.634 43.9743 334.894 44.7712 334.894 45.8701V51.4482H333.613V45.9561C333.613 45.2425 333.449 44.7087 333.12 44.3545C332.798 44.0003 332.3 43.8232 331.628 43.8232C330.68 43.8232 330.014 44.0915 329.628 44.6279C329.243 45.1644 329.05 45.943 329.05 46.9639V51.4482H327.753V42.8857H328.8L328.995 44.1201H329.066C329.248 43.818 329.48 43.5654 329.761 43.3623C330.042 43.154 330.357 42.9977 330.706 42.8936C331.055 42.7842 331.423 42.7295 331.808 42.7295ZM343.105 49.1045C343.105 49.6514 342.967 50.1123 342.691 50.4873C342.42 50.8571 342.029 51.1357 341.519 51.3232C341.014 51.5107 340.41 51.6045 339.706 51.6045C339.107 51.6045 338.589 51.5576 338.152 51.4639C337.714 51.3701 337.331 51.2373 337.003 51.0654V49.8701C337.352 50.042 337.769 50.1982 338.253 50.3389C338.738 50.4795 339.232 50.5498 339.738 50.5498C340.477 50.5498 341.014 50.43 341.347 50.1904C341.68 49.9508 341.847 49.6253 341.847 49.2139C341.847 48.9795 341.779 48.7738 341.644 48.5967C341.514 48.4144 341.292 48.2399 340.98 48.0732C340.667 47.9014 340.235 47.7139 339.683 47.5107C339.136 47.3024 338.662 47.0967 338.261 46.8936C337.865 46.6852 337.558 46.4326 337.339 46.1357C337.126 45.8389 337.019 45.4535 337.019 44.9795C337.019 44.2555 337.311 43.7008 337.894 43.3154C338.482 42.9248 339.253 42.7295 340.206 42.7295C340.722 42.7295 341.204 42.7816 341.652 42.8857C342.105 42.9847 342.527 43.1201 342.917 43.292L342.48 44.3311C342.126 44.18 341.748 44.0524 341.347 43.9482C340.946 43.8441 340.537 43.792 340.12 43.792C339.522 43.792 339.061 43.891 338.738 44.0889C338.42 44.2868 338.261 44.5576 338.261 44.9014C338.261 45.167 338.334 45.3857 338.48 45.5576C338.631 45.7295 338.87 45.891 339.199 46.042C339.527 46.193 339.959 46.3701 340.495 46.5732C341.032 46.7712 341.495 46.9769 341.886 47.1904C342.277 47.3988 342.576 47.654 342.785 47.9561C342.998 48.2529 343.105 48.6357 343.105 49.1045ZM348.488 42.7295C349.217 42.7295 349.842 42.891 350.363 43.2139C350.884 43.5368 351.282 43.9899 351.558 44.5732C351.834 45.1514 351.972 45.8285 351.972 46.6045V47.4092H346.058C346.074 48.4144 346.324 49.18 346.808 49.7061C347.292 50.2321 347.975 50.4951 348.855 50.4951C349.397 50.4951 349.876 50.4456 350.292 50.3467C350.709 50.2477 351.141 50.1019 351.589 49.9092V51.0498C351.157 51.2425 350.727 51.3831 350.3 51.4717C349.878 51.5602 349.378 51.6045 348.8 51.6045C347.977 51.6045 347.259 51.4378 346.644 51.1045C346.035 50.766 345.561 50.2712 345.222 49.6201C344.884 48.9691 344.714 48.1722 344.714 47.2295C344.714 46.3076 344.868 45.5107 345.175 44.8389C345.488 44.1618 345.925 43.641 346.488 43.2764C347.055 42.9118 347.722 42.7295 348.488 42.7295ZM348.472 43.792C347.779 43.792 347.227 44.0186 346.816 44.4717C346.404 44.9248 346.16 45.5576 346.081 46.3701H350.613C350.607 45.8597 350.527 45.4118 350.37 45.0264C350.219 44.6357 349.988 44.3337 349.675 44.1201C349.363 43.9014 348.962 43.792 348.472 43.792ZM357.605 51.6045C356.834 51.6045 356.154 51.4456 355.566 51.1279C354.977 50.8102 354.519 50.3258 354.191 49.6748C353.863 49.0238 353.699 48.2035 353.699 47.2139C353.699 46.1774 353.87 45.3311 354.214 44.6748C354.563 44.0133 355.042 43.5238 355.652 43.2061C356.261 42.8883 356.954 42.7295 357.73 42.7295C358.157 42.7295 358.568 42.7738 358.964 42.8623C359.365 42.9456 359.693 43.0524 359.949 43.1826L359.558 44.2686C359.298 44.1644 358.995 44.0706 358.652 43.9873C358.313 43.904 357.995 43.8623 357.699 43.8623C357.105 43.8623 356.61 43.9899 356.214 44.2451C355.824 44.5003 355.529 44.8753 355.331 45.3701C355.139 45.8649 355.042 46.4743 355.042 47.1982C355.042 47.891 355.136 48.4821 355.324 48.9717C355.516 49.4613 355.8 49.8363 356.175 50.0967C356.555 50.3519 357.029 50.4795 357.597 50.4795C358.05 50.4795 358.459 50.4326 358.824 50.3389C359.188 50.2399 359.519 50.1253 359.816 49.9951V51.1514C359.529 51.2972 359.209 51.4092 358.855 51.4873C358.506 51.5654 358.089 51.6045 357.605 51.6045ZM364.613 50.542C364.826 50.542 365.045 50.5238 365.269 50.4873C365.493 50.4508 365.675 50.4066 365.816 50.3545V51.3623C365.665 51.43 365.454 51.4873 365.183 51.5342C364.917 51.5811 364.657 51.6045 364.402 51.6045C363.949 51.6045 363.537 51.5264 363.167 51.3701C362.798 51.2087 362.501 50.9378 362.277 50.5576C362.058 50.1774 361.949 49.6514 361.949 48.9795V43.9014H360.73V43.2686L361.956 42.7607L362.472 40.9014H363.253V42.8857H365.761V43.9014H363.253V48.9404C363.253 49.4769 363.376 49.8779 363.62 50.1436C363.87 50.4092 364.201 50.542 364.613 50.542ZM370.847 42.7295C371.576 42.7295 372.201 42.891 372.722 43.2139C373.243 43.5368 373.641 43.9899 373.917 44.5732C374.193 45.1514 374.331 45.8285 374.331 46.6045V47.4092H368.417C368.433 48.4144 368.683 49.18 369.167 49.7061C369.652 50.2321 370.334 50.4951 371.214 50.4951C371.756 50.4951 372.235 50.4456 372.652 50.3467C373.068 50.2477 373.501 50.1019 373.949 49.9092V51.0498C373.516 51.2425 373.087 51.3831 372.66 51.4717C372.238 51.5602 371.738 51.6045 371.16 51.6045C370.337 51.6045 369.618 51.4378 369.003 51.1045C368.394 50.766 367.92 50.2712 367.581 49.6201C367.243 48.9691 367.074 48.1722 367.074 47.2295C367.074 46.3076 367.227 45.5107 367.535 44.8389C367.847 44.1618 368.285 43.641 368.847 43.2764C369.415 42.9118 370.081 42.7295 370.847 42.7295ZM370.831 43.792C370.139 43.792 369.587 44.0186 369.175 44.4717C368.764 44.9248 368.519 45.5576 368.441 46.3701H372.972C372.967 45.8597 372.886 45.4118 372.73 45.0264C372.579 44.6357 372.347 44.3337 372.035 44.1201C371.722 43.9014 371.321 43.792 370.831 43.792ZM379.3 50.542C379.514 50.542 379.732 50.5238 379.956 50.4873C380.18 50.4508 380.363 50.4066 380.503 50.3545V51.3623C380.352 51.43 380.141 51.4873 379.87 51.5342C379.605 51.5811 379.344 51.6045 379.089 51.6045C378.636 51.6045 378.225 51.5264 377.855 51.3701C377.485 51.2087 377.188 50.9378 376.964 50.5576C376.745 50.1774 376.636 49.6514 376.636 48.9795V43.9014H375.417V43.2686L376.644 42.7607L377.16 40.9014H377.941V42.8857H380.449V43.9014H377.941V48.9404C377.941 49.4769 378.063 49.8779 378.308 50.1436C378.558 50.4092 378.889 50.542 379.3 50.542ZM389.308 42.8857V51.4482H388.245L388.058 50.2451H387.988C387.811 50.542 387.581 50.792 387.3 50.9951C387.019 51.1982 386.701 51.3493 386.347 51.4482C385.998 51.5524 385.626 51.6045 385.23 51.6045C384.553 51.6045 383.985 51.4951 383.527 51.2764C383.068 51.0576 382.722 50.7191 382.488 50.2607C382.259 49.8024 382.144 49.2139 382.144 48.4951V42.8857H383.456V48.4014C383.456 49.1149 383.618 49.6488 383.941 50.0029C384.264 50.3519 384.756 50.5264 385.417 50.5264C386.053 50.5264 386.558 50.4066 386.933 50.167C387.313 49.9274 387.587 49.5758 387.753 49.1123C387.92 48.6436 388.003 48.0706 388.003 47.3936V42.8857H389.308ZM395.941 42.7295C396.113 42.7295 396.292 42.7399 396.48 42.7607C396.667 42.7764 396.834 42.7998 396.98 42.8311L396.816 44.0342C396.675 43.9977 396.519 43.9691 396.347 43.9482C396.175 43.9274 396.014 43.917 395.863 43.917C395.519 43.917 395.193 43.9873 394.886 44.1279C394.584 44.2633 394.318 44.4613 394.089 44.7217C393.86 44.9769 393.68 45.2868 393.55 45.6514C393.42 46.0107 393.355 46.4118 393.355 46.8545V51.4482H392.05V42.8857H393.128L393.269 44.4639H393.324C393.501 44.1462 393.714 43.8571 393.964 43.5967C394.214 43.3311 394.503 43.1201 394.831 42.9639C395.165 42.8076 395.535 42.7295 395.941 42.7295ZM98.9095 62.7451C99.9304 62.7451 100.688 62.9743 101.183 63.4326C101.678 63.891 101.925 64.6227 101.925 65.6279V71.4482H100.98L100.73 70.1826H100.667C100.428 70.4951 100.178 70.7581 99.9174 70.9717C99.6569 71.18 99.3549 71.3389 99.0111 71.4482C98.6726 71.5524 98.2559 71.6045 97.7611 71.6045C97.2403 71.6045 96.7767 71.5133 96.3705 71.3311C95.9694 71.1488 95.6517 70.8727 95.4174 70.5029C95.1882 70.1331 95.0736 69.6644 95.0736 69.0967C95.0736 68.2425 95.4122 67.5863 96.0892 67.1279C96.7663 66.6696 97.7976 66.4196 99.183 66.3779L100.66 66.3154V65.792C100.66 65.0524 100.501 64.5342 100.183 64.2373C99.8653 63.9404 99.4174 63.792 98.8392 63.792C98.3913 63.792 97.9642 63.8571 97.558 63.9873C97.1517 64.1175 96.7663 64.2712 96.4017 64.4482L96.0033 63.4639C96.3887 63.266 96.8314 63.0967 97.3314 62.9561C97.8314 62.8154 98.3575 62.7451 98.9095 62.7451ZM100.644 67.2295L99.3392 67.2842C98.2715 67.3258 97.5189 67.5003 97.0814 67.8076C96.6439 68.1149 96.4252 68.5498 96.4252 69.1123C96.4252 69.6019 96.5736 69.9639 96.8705 70.1982C97.1674 70.4326 97.5606 70.5498 98.0502 70.5498C98.8106 70.5498 99.433 70.3389 99.9174 69.917C100.402 69.4951 100.644 68.8623 100.644 68.0186V67.2295ZM107.644 71.6045C106.561 71.6045 105.701 71.2347 105.066 70.4951C104.436 69.7555 104.12 68.6566 104.12 67.1982C104.12 65.7243 104.443 64.6123 105.089 63.8623C105.735 63.1071 106.594 62.7295 107.667 62.7295C108.12 62.7295 108.516 62.7894 108.855 62.9092C109.193 63.029 109.485 63.1904 109.73 63.3936C109.975 63.5915 110.18 63.818 110.347 64.0732H110.441C110.42 63.9118 110.399 63.6904 110.378 63.4092C110.357 63.1279 110.347 62.8988 110.347 62.7217V59.292H111.644V71.4482H110.597L110.402 70.2295H110.347C110.186 70.4847 109.98 70.7165 109.73 70.9248C109.485 71.1331 109.191 71.2998 108.847 71.4248C108.509 71.5446 108.107 71.6045 107.644 71.6045ZM107.847 70.5264C108.764 70.5264 109.412 70.266 109.792 69.7451C110.173 69.2243 110.363 68.4508 110.363 67.4248V67.1904C110.363 66.1019 110.18 65.266 109.816 64.6826C109.456 64.0993 108.8 63.8076 107.847 63.8076C107.05 63.8076 106.454 64.1149 106.058 64.7295C105.662 65.3389 105.464 66.1722 105.464 67.2295C105.464 68.2816 105.66 69.0941 106.05 69.667C106.446 70.2399 107.045 70.5264 107.847 70.5264ZM115.691 62.8857V71.4482H114.394V62.8857H115.691ZM115.058 59.6826C115.272 59.6826 115.454 59.7529 115.605 59.8936C115.761 60.029 115.839 60.2425 115.839 60.5342C115.839 60.8206 115.761 61.0342 115.605 61.1748C115.454 61.3154 115.272 61.3857 115.058 61.3857C114.834 61.3857 114.647 61.3154 114.495 61.1748C114.35 61.0342 114.277 60.8206 114.277 60.5342C114.277 60.2425 114.35 60.029 114.495 59.8936C114.647 59.7529 114.834 59.6826 115.058 59.6826ZM122.464 62.7295C123.532 62.7295 124.384 63.0967 125.019 63.8311C125.654 64.5654 125.972 65.6696 125.972 67.1436C125.972 68.1175 125.826 68.9352 125.535 69.5967C125.243 70.2581 124.831 70.7581 124.3 71.0967C123.774 71.4352 123.152 71.6045 122.433 71.6045C121.98 71.6045 121.581 71.5446 121.238 71.4248C120.894 71.305 120.6 71.1436 120.355 70.9404C120.11 70.7373 119.907 70.516 119.745 70.2764H119.652C119.667 70.4795 119.686 70.7243 119.706 71.0107C119.732 71.2972 119.745 71.5472 119.745 71.7607V75.2764H118.441V62.8857H119.511L119.683 64.1514H119.745C119.912 63.891 120.115 63.654 120.355 63.4404C120.594 63.2217 120.886 63.0498 121.23 62.9248C121.579 62.7946 121.99 62.7295 122.464 62.7295ZM122.238 63.8232C121.644 63.8232 121.165 63.9378 120.8 64.167C120.441 64.3962 120.178 64.7399 120.011 65.1982C119.844 65.6514 119.756 66.2217 119.745 66.9092V67.1592C119.745 67.8831 119.824 68.4951 119.98 68.9951C120.141 69.4951 120.404 69.8753 120.769 70.1357C121.139 70.3962 121.634 70.5264 122.253 70.5264C122.785 70.5264 123.227 70.3831 123.581 70.0967C123.936 69.8102 124.199 69.4118 124.37 68.9014C124.548 68.3857 124.636 67.7946 124.636 67.1279C124.636 66.1175 124.438 65.3154 124.042 64.7217C123.652 64.1227 123.05 63.8232 122.238 63.8232ZM129.535 62.8857V71.4482H128.238V62.8857H129.535ZM128.902 59.6826C129.115 59.6826 129.298 59.7529 129.449 59.8936C129.605 60.029 129.683 60.2425 129.683 60.5342C129.683 60.8206 129.605 61.0342 129.449 61.1748C129.298 61.3154 129.115 61.3857 128.902 61.3857C128.678 61.3857 128.49 61.3154 128.339 61.1748C128.193 61.0342 128.12 60.8206 128.12 60.5342C128.12 60.2425 128.193 60.029 128.339 59.8936C128.49 59.7529 128.678 59.6826 128.902 59.6826ZM137.824 69.1045C137.824 69.6514 137.686 70.1123 137.41 70.4873C137.139 70.8571 136.748 71.1357 136.238 71.3232C135.732 71.5107 135.128 71.6045 134.425 71.6045C133.826 71.6045 133.308 71.5576 132.87 71.4639C132.433 71.3701 132.05 71.2373 131.722 71.0654V69.8701C132.071 70.042 132.488 70.1982 132.972 70.3389C133.456 70.4795 133.951 70.5498 134.456 70.5498C135.196 70.5498 135.732 70.43 136.066 70.1904C136.399 69.9508 136.566 69.6253 136.566 69.2139C136.566 68.9795 136.498 68.7738 136.363 68.5967C136.232 68.4144 136.011 68.2399 135.699 68.0732C135.386 67.9014 134.954 67.7139 134.402 67.5107C133.855 67.3024 133.381 67.0967 132.98 66.8936C132.584 66.6852 132.277 66.4326 132.058 66.1357C131.844 65.8389 131.738 65.4535 131.738 64.9795C131.738 64.2555 132.029 63.7008 132.613 63.3154C133.201 62.9248 133.972 62.7295 134.925 62.7295C135.441 62.7295 135.923 62.7816 136.37 62.8857C136.824 62.9847 137.245 63.1201 137.636 63.292L137.199 64.3311C136.844 64.18 136.467 64.0524 136.066 63.9482C135.665 63.8441 135.256 63.792 134.839 63.792C134.24 63.792 133.779 63.891 133.456 64.0889C133.139 64.2868 132.98 64.5576 132.98 64.9014C132.98 65.167 133.053 65.3857 133.199 65.5576C133.35 65.7295 133.589 65.891 133.917 66.042C134.245 66.193 134.678 66.3701 135.214 66.5732C135.751 66.7712 136.214 66.9769 136.605 67.1904C136.995 67.3988 137.295 67.654 137.503 67.9561C137.717 68.2529 137.824 68.6357 137.824 69.1045ZM143.339 71.6045C142.568 71.6045 141.889 71.4456 141.3 71.1279C140.712 70.8102 140.253 70.3258 139.925 69.6748C139.597 69.0238 139.433 68.2035 139.433 67.2139C139.433 66.1774 139.605 65.3311 139.949 64.6748C140.298 64.0133 140.777 63.5238 141.386 63.2061C141.995 62.8883 142.688 62.7295 143.464 62.7295C143.891 62.7295 144.303 62.7738 144.699 62.8623C145.1 62.9456 145.428 63.0524 145.683 63.1826L145.292 64.2686C145.032 64.1644 144.73 64.0706 144.386 63.9873C144.048 63.904 143.73 63.8623 143.433 63.8623C142.839 63.8623 142.344 63.9899 141.949 64.2451C141.558 64.5003 141.264 64.8753 141.066 65.3701C140.873 65.8649 140.777 66.4743 140.777 67.1982C140.777 67.891 140.87 68.4821 141.058 68.9717C141.251 69.4613 141.535 69.8363 141.91 70.0967C142.29 70.3519 142.764 70.4795 143.331 70.4795C143.785 70.4795 144.193 70.4326 144.558 70.3389C144.923 70.2399 145.253 70.1253 145.55 69.9951V71.1514C145.264 71.2972 144.943 71.4092 144.589 71.4873C144.24 71.5654 143.824 71.6045 143.339 71.6045ZM148.878 62.8857V71.4482H147.581V62.8857H148.878ZM148.245 59.6826C148.459 59.6826 148.641 59.7529 148.792 59.8936C148.949 60.029 149.027 60.2425 149.027 60.5342C149.027 60.8206 148.949 61.0342 148.792 61.1748C148.641 61.3154 148.459 61.3857 148.245 61.3857C148.022 61.3857 147.834 61.3154 147.683 61.1748C147.537 61.0342 147.464 60.8206 147.464 60.5342C147.464 60.2425 147.537 60.029 147.683 59.8936C147.834 59.7529 148.022 59.6826 148.245 59.6826ZM155.683 62.7295C156.699 62.7295 157.467 62.9795 157.988 63.4795C158.509 63.9743 158.769 64.7712 158.769 65.8701V71.4482H157.488V65.9561C157.488 65.2425 157.324 64.7087 156.995 64.3545C156.673 64.0003 156.175 63.8232 155.503 63.8232C154.555 63.8232 153.889 64.0915 153.503 64.6279C153.118 65.1644 152.925 65.943 152.925 66.9639V71.4482H151.628V62.8857H152.675L152.87 64.1201H152.941C153.123 63.818 153.355 63.5654 153.636 63.3623C153.917 63.154 154.232 62.9977 154.581 62.8936C154.93 62.7842 155.298 62.7295 155.683 62.7295ZM163.831 75.292C162.706 75.292 161.839 75.0811 161.23 74.6592C160.62 74.2425 160.316 73.6566 160.316 72.9014C160.316 72.3649 160.485 71.9066 160.824 71.5264C161.167 71.1462 161.641 70.8936 162.245 70.7686C162.022 70.6644 161.829 70.5081 161.667 70.2998C161.511 70.0915 161.433 69.8519 161.433 69.5811C161.433 69.2686 161.519 68.9951 161.691 68.7607C161.868 68.5212 162.136 68.292 162.495 68.0732C162.048 67.891 161.683 67.5837 161.402 67.1514C161.126 66.7139 160.988 66.2061 160.988 65.6279C160.988 65.0133 161.115 64.4899 161.37 64.0576C161.626 63.6201 161.995 63.2868 162.48 63.0576C162.964 62.8285 163.55 62.7139 164.238 62.7139C164.389 62.7139 164.54 62.7217 164.691 62.7373C164.847 62.7477 164.995 62.766 165.136 62.792C165.277 62.8128 165.399 62.8389 165.503 62.8701H168.441V63.7061L166.863 63.9014C167.019 64.1045 167.149 64.3493 167.253 64.6357C167.357 64.9222 167.41 65.2399 167.41 65.5889C167.41 66.443 167.12 67.1227 166.542 67.6279C165.964 68.1279 165.17 68.3779 164.16 68.3779C163.92 68.3779 163.675 68.3571 163.425 68.3154C163.17 68.4561 162.975 68.6123 162.839 68.7842C162.709 68.9561 162.644 69.154 162.644 69.3779C162.644 69.5446 162.693 69.6774 162.792 69.7764C162.897 69.8753 163.045 69.9482 163.238 69.9951C163.43 70.0368 163.662 70.0576 163.933 70.0576H165.441C166.373 70.0576 167.087 70.2529 167.581 70.6436C168.081 71.0342 168.331 71.6045 168.331 72.3545C168.331 73.3024 167.946 74.029 167.175 74.5342C166.404 75.0394 165.29 75.292 163.831 75.292ZM163.87 74.2764C164.579 74.2764 165.165 74.2035 165.628 74.0576C166.097 73.917 166.446 73.7113 166.675 73.4404C166.91 73.1748 167.027 72.8571 167.027 72.4873C167.027 72.1436 166.949 71.8831 166.792 71.7061C166.636 71.5342 166.407 71.4196 166.105 71.3623C165.803 71.2998 165.433 71.2686 164.995 71.2686H163.511C163.126 71.2686 162.79 71.3285 162.503 71.4482C162.217 71.568 161.995 71.7451 161.839 71.9795C161.688 72.2139 161.613 72.5055 161.613 72.8545C161.613 73.318 161.808 73.6696 162.199 73.9092C162.589 74.154 163.147 74.2764 163.87 74.2764ZM164.206 67.4326C164.826 67.4326 165.292 67.2764 165.605 66.9639C165.917 66.6514 166.074 66.1956 166.074 65.5967C166.074 64.9561 165.915 64.4769 165.597 64.1592C165.279 63.8363 164.811 63.6748 164.191 63.6748C163.597 63.6748 163.139 63.8415 162.816 64.1748C162.498 64.5029 162.339 64.9847 162.339 65.6201C162.339 66.2035 162.501 66.6514 162.824 66.9639C163.147 67.2764 163.607 67.4326 164.206 67.4326ZM177.581 62.7295C178.311 62.7295 178.936 62.891 179.456 63.2139C179.977 63.5368 180.376 63.9899 180.652 64.5732C180.928 65.1514 181.066 65.8285 181.066 66.6045V67.4092H175.152C175.167 68.4144 175.417 69.18 175.902 69.7061C176.386 70.2321 177.068 70.4951 177.949 70.4951C178.49 70.4951 178.969 70.4456 179.386 70.3467C179.803 70.2477 180.235 70.1019 180.683 69.9092V71.0498C180.251 71.2425 179.821 71.3831 179.394 71.4717C178.972 71.5602 178.472 71.6045 177.894 71.6045C177.071 71.6045 176.352 71.4378 175.738 71.1045C175.128 70.766 174.654 70.2712 174.316 69.6201C173.977 68.9691 173.808 68.1722 173.808 67.2295C173.808 66.3076 173.962 65.5107 174.269 64.8389C174.581 64.1618 175.019 63.641 175.581 63.2764C176.149 62.9118 176.816 62.7295 177.581 62.7295ZM177.566 63.792C176.873 63.792 176.321 64.0186 175.91 64.4717C175.498 64.9248 175.253 65.5576 175.175 66.3701H179.706C179.701 65.8597 179.62 65.4118 179.464 65.0264C179.313 64.6357 179.081 64.3337 178.769 64.1201C178.456 63.9014 178.055 63.792 177.566 63.792ZM184.574 71.4482H183.269V59.292H184.574V71.4482ZM188.613 62.8857V71.4482H187.316V62.8857H188.613ZM187.98 59.6826C188.193 59.6826 188.376 59.7529 188.527 59.8936C188.683 60.029 188.761 60.2425 188.761 60.5342C188.761 60.8206 188.683 61.0342 188.527 61.1748C188.376 61.3154 188.193 61.3857 187.98 61.3857C187.756 61.3857 187.568 61.3154 187.417 61.1748C187.272 61.0342 187.199 60.8206 187.199 60.5342C187.199 60.2425 187.272 60.029 187.417 59.8936C187.568 59.7529 187.756 59.6826 187.98 59.6826ZM194.128 70.542C194.342 70.542 194.561 70.5238 194.785 70.4873C195.009 70.4508 195.191 70.4066 195.331 70.3545V71.3623C195.18 71.43 194.969 71.4873 194.699 71.5342C194.433 71.5811 194.173 71.6045 193.917 71.6045C193.464 71.6045 193.053 71.5264 192.683 71.3701C192.313 71.2087 192.016 70.9378 191.792 70.5576C191.574 70.1774 191.464 69.6514 191.464 68.9795V63.9014H190.245V63.2686L191.472 62.7607L191.988 60.9014H192.769V62.8857H195.277V63.9014H192.769V68.9404C192.769 69.4769 192.891 69.8779 193.136 70.1436C193.386 70.4092 193.717 70.542 194.128 70.542ZM196.87 70.6357C196.87 70.2712 196.959 70.0133 197.136 69.8623C197.313 69.7061 197.529 69.6279 197.785 69.6279C198.05 69.6279 198.274 69.7061 198.456 69.8623C198.639 70.0133 198.73 70.2712 198.73 70.6357C198.73 70.9951 198.639 71.2581 198.456 71.4248C198.274 71.5863 198.05 71.667 197.785 71.667C197.529 71.667 197.313 71.5863 197.136 71.4248C196.959 71.2581 196.87 70.9951 196.87 70.6357ZM214.261 60.0264V67.417C214.261 68.2243 214.097 68.943 213.769 69.5732C213.446 70.2035 212.956 70.7008 212.3 71.0654C211.644 71.4248 210.821 71.6045 209.831 71.6045C208.42 71.6045 207.344 71.2217 206.605 70.4561C205.87 69.6904 205.503 68.667 205.503 67.3857V60.0264H206.839V67.4248C206.839 68.3936 207.094 69.141 207.605 69.667C208.12 70.193 208.889 70.4561 209.91 70.4561C210.607 70.4561 211.178 70.3311 211.62 70.0811C212.068 69.8258 212.399 69.4717 212.613 69.0186C212.831 68.5602 212.941 68.0316 212.941 67.4326V60.0264H214.261ZM220.988 62.7295C221.16 62.7295 221.339 62.7399 221.527 62.7607C221.714 62.7764 221.881 62.7998 222.027 62.8311L221.863 64.0342C221.722 63.9977 221.566 63.9691 221.394 63.9482C221.222 63.9274 221.061 63.917 220.91 63.917C220.566 63.917 220.24 63.9873 219.933 64.1279C219.631 64.2633 219.365 64.4613 219.136 64.7217C218.907 64.9769 218.727 65.2868 218.597 65.6514C218.467 66.0107 218.402 66.4118 218.402 66.8545V71.4482H217.097V62.8857H218.175L218.316 64.4639H218.37C218.548 64.1462 218.761 63.8571 219.011 63.5967C219.261 63.3311 219.55 63.1201 219.878 62.9639C220.212 62.8076 220.581 62.7295 220.988 62.7295ZM227.699 62.7295C228.714 62.7295 229.482 62.9795 230.003 63.4795C230.524 63.9743 230.785 64.7712 230.785 65.8701V71.4482H229.503V65.9561C229.503 65.2425 229.339 64.7087 229.011 64.3545C228.688 64.0003 228.191 63.8232 227.519 63.8232C226.571 63.8232 225.904 64.0915 225.519 64.6279C225.134 65.1644 224.941 65.943 224.941 66.9639V71.4482H223.644V62.8857H224.691L224.886 64.1201H224.956C225.139 63.818 225.37 63.5654 225.652 63.3623C225.933 63.154 226.248 62.9977 226.597 62.8936C226.946 62.7842 227.313 62.7295 227.699 62.7295ZM236.66 62.7451C237.68 62.7451 238.438 62.9743 238.933 63.4326C239.428 63.891 239.675 64.6227 239.675 65.6279V71.4482H238.73L238.48 70.1826H238.417C238.178 70.4951 237.928 70.7581 237.667 70.9717C237.407 71.18 237.105 71.3389 236.761 71.4482C236.423 71.5524 236.006 71.6045 235.511 71.6045C234.99 71.6045 234.527 71.5133 234.12 71.3311C233.719 71.1488 233.402 70.8727 233.167 70.5029C232.938 70.1331 232.824 69.6644 232.824 69.0967C232.824 68.2425 233.162 67.5863 233.839 67.1279C234.516 66.6696 235.548 66.4196 236.933 66.3779L238.41 66.3154V65.792C238.41 65.0524 238.251 64.5342 237.933 64.2373C237.615 63.9404 237.167 63.792 236.589 63.792C236.141 63.792 235.714 63.8571 235.308 63.9873C234.902 64.1175 234.516 64.2712 234.152 64.4482L233.753 63.4639C234.139 63.266 234.581 63.0967 235.081 62.9561C235.581 62.8154 236.107 62.7451 236.66 62.7451ZM238.394 67.2295L237.089 67.2842C236.022 67.3258 235.269 67.5003 234.831 67.8076C234.394 68.1149 234.175 68.5498 234.175 69.1123C234.175 69.6019 234.324 69.9639 234.62 70.1982C234.917 70.4326 235.311 70.5498 235.8 70.5498C236.561 70.5498 237.183 70.3389 237.667 69.917C238.152 69.4951 238.394 68.8623 238.394 68.0186V67.2295ZM243.831 69.5889L243.933 69.7686C243.839 70.1488 243.719 70.555 243.574 70.9873C243.433 71.4196 243.277 71.8519 243.105 72.2842C242.938 72.7217 242.769 73.1305 242.597 73.5107H241.628C241.738 73.0941 241.844 72.654 241.949 72.1904C242.053 71.7321 242.147 71.279 242.23 70.8311C242.318 70.3779 242.389 69.9639 242.441 69.5889H243.831ZM253.41 70.542C253.623 70.542 253.842 70.5238 254.066 70.4873C254.29 70.4508 254.472 70.4066 254.613 70.3545V71.3623C254.462 71.43 254.251 71.4873 253.98 71.5342C253.714 71.5811 253.454 71.6045 253.199 71.6045C252.745 71.6045 252.334 71.5264 251.964 71.3701C251.594 71.2087 251.298 70.9378 251.074 70.5576C250.855 70.1774 250.745 69.6514 250.745 68.9795V63.9014H249.527V63.2686L250.753 62.7607L251.269 60.9014H252.05V62.8857H254.558V63.9014H252.05V68.9404C252.05 69.4769 252.173 69.8779 252.417 70.1436C252.667 70.4092 252.998 70.542 253.41 70.542ZM263.73 67.1514C263.73 67.8545 263.639 68.4821 263.456 69.0342C263.274 69.5863 263.011 70.0524 262.667 70.4326C262.324 70.8128 261.907 71.1045 261.417 71.3076C260.933 71.5055 260.384 71.6045 259.769 71.6045C259.196 71.6045 258.67 71.5055 258.191 71.3076C257.717 71.1045 257.305 70.8128 256.956 70.4326C256.613 70.0524 256.344 69.5863 256.152 69.0342C255.964 68.4821 255.87 67.8545 255.87 67.1514C255.87 66.2139 256.029 65.417 256.347 64.7607C256.665 64.0993 257.118 63.5967 257.706 63.2529C258.3 62.904 259.006 62.7295 259.824 62.7295C260.605 62.7295 261.287 62.904 261.87 63.2529C262.459 63.6019 262.915 64.1071 263.238 64.7686C263.566 65.4248 263.73 66.2191 263.73 67.1514ZM257.214 67.1514C257.214 67.8389 257.305 68.4352 257.488 68.9404C257.67 69.4456 257.951 69.8363 258.331 70.1123C258.712 70.3883 259.201 70.5264 259.8 70.5264C260.394 70.5264 260.881 70.3883 261.261 70.1123C261.647 69.8363 261.93 69.4456 262.113 68.9404C262.295 68.4352 262.386 67.8389 262.386 67.1514C262.386 66.4691 262.295 65.8805 262.113 65.3857C261.93 64.8857 261.649 64.5003 261.269 64.2295C260.889 63.9587 260.397 63.8232 259.792 63.8232C258.902 63.8232 258.248 64.1175 257.831 64.7061C257.42 65.2946 257.214 66.1097 257.214 67.1514ZM269.863 62.7295C270.035 62.7295 270.214 62.7399 270.402 62.7607C270.589 62.7764 270.756 62.7998 270.902 62.8311L270.738 64.0342C270.597 63.9977 270.441 63.9691 270.269 63.9482C270.097 63.9274 269.936 63.917 269.785 63.917C269.441 63.917 269.115 63.9873 268.808 64.1279C268.506 64.2633 268.24 64.4613 268.011 64.7217C267.782 64.9769 267.602 65.2868 267.472 65.6514C267.342 66.0107 267.277 66.4118 267.277 66.8545V71.4482H265.972V62.8857H267.05L267.191 64.4639H267.245C267.423 64.1462 267.636 63.8571 267.886 63.5967C268.136 63.3311 268.425 63.1201 268.753 62.9639C269.087 62.8076 269.456 62.7295 269.863 62.7295ZM275.285 70.542C275.498 70.542 275.717 70.5238 275.941 70.4873C276.165 70.4508 276.347 70.4066 276.488 70.3545V71.3623C276.337 71.43 276.126 71.4873 275.855 71.5342C275.589 71.5811 275.329 71.6045 275.074 71.6045C274.62 71.6045 274.209 71.5264 273.839 71.3701C273.469 71.2087 273.173 70.9378 272.949 70.5576C272.73 70.1774 272.62 69.6514 272.62 68.9795V63.9014H271.402V63.2686L272.628 62.7607L273.144 60.9014H273.925V62.8857H276.433V63.9014H273.925V68.9404C273.925 69.4769 274.048 69.8779 274.292 70.1436C274.542 70.4092 274.873 70.542 275.285 70.542ZM285.605 67.1514C285.605 67.8545 285.514 68.4821 285.331 69.0342C285.149 69.5863 284.886 70.0524 284.542 70.4326C284.199 70.8128 283.782 71.1045 283.292 71.3076C282.808 71.5055 282.259 71.6045 281.644 71.6045C281.071 71.6045 280.545 71.5055 280.066 71.3076C279.592 71.1045 279.18 70.8128 278.831 70.4326C278.488 70.0524 278.219 69.5863 278.027 69.0342C277.839 68.4821 277.745 67.8545 277.745 67.1514C277.745 66.2139 277.904 65.417 278.222 64.7607C278.54 64.0993 278.993 63.5967 279.581 63.2529C280.175 62.904 280.881 62.7295 281.699 62.7295C282.48 62.7295 283.162 62.904 283.745 63.2529C284.334 63.6019 284.79 64.1071 285.113 64.7686C285.441 65.4248 285.605 66.2191 285.605 67.1514ZM279.089 67.1514C279.089 67.8389 279.18 68.4352 279.363 68.9404C279.545 69.4456 279.826 69.8363 280.206 70.1123C280.587 70.3883 281.076 70.5264 281.675 70.5264C282.269 70.5264 282.756 70.3883 283.136 70.1123C283.522 69.8363 283.805 69.4456 283.988 68.9404C284.17 68.4352 284.261 67.8389 284.261 67.1514C284.261 66.4691 284.17 65.8805 283.988 65.3857C283.805 64.8857 283.524 64.5003 283.144 64.2295C282.764 63.9587 282.272 63.8232 281.667 63.8232C280.777 63.8232 280.123 64.1175 279.706 64.7061C279.295 65.2946 279.089 66.1097 279.089 67.1514ZM291.738 62.7295C291.91 62.7295 292.089 62.7399 292.277 62.7607C292.464 62.7764 292.631 62.7998 292.777 62.8311L292.613 64.0342C292.472 63.9977 292.316 63.9691 292.144 63.9482C291.972 63.9274 291.811 63.917 291.66 63.917C291.316 63.917 290.99 63.9873 290.683 64.1279C290.381 64.2633 290.115 64.4613 289.886 64.7217C289.657 64.9769 289.477 65.2868 289.347 65.6514C289.217 66.0107 289.152 66.4118 289.152 66.8545V71.4482H287.847V62.8857H288.925L289.066 64.4639H289.12C289.298 64.1462 289.511 63.8571 289.761 63.5967C290.011 63.3311 290.3 63.1201 290.628 62.9639C290.962 62.8076 291.331 62.7295 291.738 62.7295ZM301.316 70.542C301.529 70.542 301.748 70.5238 301.972 70.4873C302.196 70.4508 302.378 70.4066 302.519 70.3545V71.3623C302.368 71.43 302.157 71.4873 301.886 71.5342C301.62 71.5811 301.36 71.6045 301.105 71.6045C300.652 71.6045 300.24 71.5264 299.87 71.3701C299.501 71.2087 299.204 70.9378 298.98 70.5576C298.761 70.1774 298.652 69.6514 298.652 68.9795V63.9014H297.433V63.2686L298.66 62.7607L299.175 60.9014H299.956V62.8857H302.464V63.9014H299.956V68.9404C299.956 69.4769 300.079 69.8779 300.324 70.1436C300.574 70.4092 300.904 70.542 301.316 70.542ZM307.55 62.7295C308.279 62.7295 308.904 62.891 309.425 63.2139C309.946 63.5368 310.344 63.9899 310.62 64.5732C310.897 65.1514 311.035 65.8285 311.035 66.6045V67.4092H305.12C305.136 68.4144 305.386 69.18 305.87 69.7061C306.355 70.2321 307.037 70.4951 307.917 70.4951C308.459 70.4951 308.938 70.4456 309.355 70.3467C309.772 70.2477 310.204 70.1019 310.652 69.9092V71.0498C310.219 71.2425 309.79 71.3831 309.363 71.4717C308.941 71.5602 308.441 71.6045 307.863 71.6045C307.04 71.6045 306.321 71.4378 305.706 71.1045C305.097 70.766 304.623 70.2712 304.285 69.6201C303.946 68.9691 303.777 68.1722 303.777 67.2295C303.777 66.3076 303.93 65.5107 304.238 64.8389C304.55 64.1618 304.988 63.641 305.55 63.2764C306.118 62.9118 306.785 62.7295 307.55 62.7295ZM307.535 63.792C306.842 63.792 306.29 64.0186 305.878 64.4717C305.467 64.9248 305.222 65.5576 305.144 66.3701H309.675C309.67 65.8597 309.589 65.4118 309.433 65.0264C309.282 64.6357 309.05 64.3337 308.738 64.1201C308.425 63.9014 308.024 63.792 307.535 63.792ZM322.535 62.7295C323.477 62.7295 324.188 62.9769 324.667 63.4717C325.147 63.9613 325.386 64.7503 325.386 65.8389V71.4482H324.105V65.9014C324.105 65.2087 323.954 64.6904 323.652 64.3467C323.355 63.9977 322.912 63.8232 322.324 63.8232C321.495 63.8232 320.894 64.0628 320.519 64.542C320.144 65.0212 319.956 65.7269 319.956 66.6592V71.4482H318.667V65.9014C318.667 65.4378 318.6 65.0524 318.464 64.7451C318.334 64.4378 318.136 64.2087 317.87 64.0576C317.61 63.9014 317.279 63.8232 316.878 63.8232C316.311 63.8232 315.855 63.9404 315.511 64.1748C315.167 64.4092 314.917 64.7581 314.761 65.2217C314.61 65.68 314.535 66.2451 314.535 66.917V71.4482H313.238V62.8857H314.285L314.48 64.0967H314.55C314.722 63.7998 314.938 63.5498 315.199 63.3467C315.459 63.1436 315.751 62.9899 316.074 62.8857C316.397 62.7816 316.74 62.7295 317.105 62.7295C317.756 62.7295 318.3 62.8519 318.738 63.0967C319.18 63.3363 319.501 63.7035 319.699 64.1982H319.769C320.05 63.7035 320.436 63.3363 320.925 63.0967C321.415 62.8519 321.951 62.7295 322.535 62.7295ZM332.074 62.7295C333.141 62.7295 333.993 63.0967 334.628 63.8311C335.264 64.5654 335.581 65.6696 335.581 67.1436C335.581 68.1175 335.436 68.9352 335.144 69.5967C334.852 70.2581 334.441 70.7581 333.91 71.0967C333.384 71.4352 332.761 71.6045 332.042 71.6045C331.589 71.6045 331.191 71.5446 330.847 71.4248C330.503 71.305 330.209 71.1436 329.964 70.9404C329.719 70.7373 329.516 70.516 329.355 70.2764H329.261C329.277 70.4795 329.295 70.7243 329.316 71.0107C329.342 71.2972 329.355 71.5472 329.355 71.7607V75.2764H328.05V62.8857H329.12L329.292 64.1514H329.355C329.522 63.891 329.725 63.654 329.964 63.4404C330.204 63.2217 330.495 63.0498 330.839 62.9248C331.188 62.7946 331.6 62.7295 332.074 62.7295ZM331.847 63.8232C331.253 63.8232 330.774 63.9378 330.41 64.167C330.05 64.3962 329.787 64.7399 329.62 65.1982C329.454 65.6514 329.365 66.2217 329.355 66.9092V67.1592C329.355 67.8831 329.433 68.4951 329.589 68.9951C329.751 69.4951 330.014 69.8753 330.378 70.1357C330.748 70.3962 331.243 70.5264 331.863 70.5264C332.394 70.5264 332.837 70.3831 333.191 70.0967C333.545 69.8102 333.808 69.4118 333.98 68.9014C334.157 68.3857 334.245 67.7946 334.245 67.1279C334.245 66.1175 334.048 65.3154 333.652 64.7217C333.261 64.1227 332.66 63.8232 331.847 63.8232ZM344.917 62.8857V71.4482H343.855L343.667 70.2451H343.597C343.42 70.542 343.191 70.792 342.91 70.9951C342.628 71.1982 342.311 71.3493 341.956 71.4482C341.607 71.5524 341.235 71.6045 340.839 71.6045C340.162 71.6045 339.594 71.4951 339.136 71.2764C338.678 71.0576 338.331 70.7191 338.097 70.2607C337.868 69.8024 337.753 69.2139 337.753 68.4951V62.8857H339.066V68.4014C339.066 69.1149 339.227 69.6488 339.55 70.0029C339.873 70.3519 340.365 70.5264 341.027 70.5264C341.662 70.5264 342.167 70.4066 342.542 70.167C342.923 69.9274 343.196 69.5758 343.363 69.1123C343.529 68.6436 343.613 68.0706 343.613 67.3936V62.8857H344.917ZM353.199 69.1045C353.199 69.6514 353.061 70.1123 352.785 70.4873C352.514 70.8571 352.123 71.1357 351.613 71.3232C351.107 71.5107 350.503 71.6045 349.8 71.6045C349.201 71.6045 348.683 71.5576 348.245 71.4639C347.808 71.3701 347.425 71.2373 347.097 71.0654V69.8701C347.446 70.042 347.863 70.1982 348.347 70.3389C348.831 70.4795 349.326 70.5498 349.831 70.5498C350.571 70.5498 351.107 70.43 351.441 70.1904C351.774 69.9508 351.941 69.6253 351.941 69.2139C351.941 68.9795 351.873 68.7738 351.738 68.5967C351.607 68.4144 351.386 68.2399 351.074 68.0732C350.761 67.9014 350.329 67.7139 349.777 67.5107C349.23 67.3024 348.756 67.0967 348.355 66.8936C347.959 66.6852 347.652 66.4326 347.433 66.1357C347.219 65.8389 347.113 65.4535 347.113 64.9795C347.113 64.2555 347.404 63.7008 347.988 63.3154C348.576 62.9248 349.347 62.7295 350.3 62.7295C350.816 62.7295 351.298 62.7816 351.745 62.8857C352.199 62.9847 352.62 63.1201 353.011 63.292L352.574 64.3311C352.219 64.18 351.842 64.0524 351.441 63.9482C351.04 63.8441 350.631 63.792 350.214 63.792C349.615 63.792 349.154 63.891 348.831 64.0889C348.514 64.2868 348.355 64.5576 348.355 64.9014C348.355 65.167 348.428 65.3857 348.574 65.5576C348.725 65.7295 348.964 65.891 349.292 66.042C349.62 66.193 350.053 66.3701 350.589 66.5732C351.126 66.7712 351.589 66.9769 351.98 67.1904C352.37 67.3988 352.67 67.654 352.878 67.9561C353.092 68.2529 353.199 68.6357 353.199 69.1045ZM355.089 70.6357C355.089 70.2712 355.178 70.0133 355.355 69.8623C355.532 69.7061 355.748 69.6279 356.003 69.6279C356.269 69.6279 356.493 69.7061 356.675 69.8623C356.857 70.0133 356.949 70.2712 356.949 70.6357C356.949 70.9951 356.857 71.2581 356.675 71.4248C356.493 71.5863 356.269 71.667 356.003 71.667C355.748 71.667 355.532 71.5863 355.355 71.4248C355.178 71.2581 355.089 70.9951 355.089 70.6357Z" fill="#5E6282"/>
<path d="M99.1049 5.34277C100.141 5.34277 100.995 5.46777 101.667 5.71777C102.344 5.96777 102.847 6.34538 103.175 6.85059C103.503 7.35579 103.667 7.99382 103.667 8.76465C103.667 9.28548 103.568 9.74121 103.37 10.1318C103.173 10.5225 102.912 10.8532 102.589 11.124C102.266 11.3949 101.917 11.6162 101.542 11.7881L104.902 16.7646H102.214L99.4877 12.3818H98.1986V16.7646H95.7767V5.34277H99.1049ZM98.933 7.32715H98.1986V10.4131H98.9799C99.7819 10.4131 100.355 10.2803 100.699 10.0146C101.048 9.74382 101.222 9.34798 101.222 8.82715C101.222 8.28548 101.035 7.90007 100.66 7.6709C100.29 7.44173 99.7142 7.32715 98.933 7.32715ZM109.753 7.86621C110.561 7.86621 111.256 8.02246 111.839 8.33496C112.423 8.64225 112.873 9.09017 113.191 9.67871C113.509 10.2673 113.667 10.986 113.667 11.835V12.9912H108.035C108.061 13.6631 108.261 14.1917 108.636 14.5771C109.016 14.9574 109.542 15.1475 110.214 15.1475C110.772 15.1475 111.282 15.0902 111.745 14.9756C112.209 14.861 112.686 14.6891 113.175 14.46V16.3037C112.743 16.5173 112.29 16.6735 111.816 16.7725C111.347 16.8714 110.777 16.9209 110.105 16.9209C109.23 16.9209 108.454 16.7594 107.777 16.4365C107.105 16.1136 106.576 15.6214 106.191 14.96C105.811 14.2985 105.62 13.4652 105.62 12.46C105.62 11.4391 105.792 10.5902 106.136 9.91309C106.485 9.23079 106.969 8.72038 107.589 8.38184C108.209 8.03809 108.93 7.86621 109.753 7.86621ZM109.769 9.56152C109.305 9.56152 108.92 9.70996 108.613 10.0068C108.311 10.3037 108.136 10.7699 108.089 11.4053H111.433C111.428 11.0511 111.363 10.736 111.238 10.46C111.118 10.1839 110.936 9.96517 110.691 9.80371C110.451 9.64225 110.144 9.56152 109.769 9.56152ZM119.183 7.85059C120.355 7.85059 121.253 8.10579 121.878 8.61621C122.503 9.12663 122.816 9.90267 122.816 10.9443V16.7646H121.152L120.691 15.5771H120.628C120.378 15.8896 120.123 16.1449 119.863 16.3428C119.602 16.5407 119.303 16.6865 118.964 16.7803C118.626 16.874 118.214 16.9209 117.73 16.9209C117.214 16.9209 116.751 16.8219 116.339 16.624C115.933 16.4261 115.613 16.124 115.378 15.7178C115.144 15.3063 115.027 14.7855 115.027 14.1553C115.027 13.2282 115.352 12.5459 116.003 12.1084C116.654 11.6657 117.631 11.4209 118.933 11.374L120.449 11.3271V10.9443C120.449 10.486 120.329 10.1501 120.089 9.93652C119.85 9.72298 119.516 9.61621 119.089 9.61621C118.667 9.61621 118.253 9.67611 117.847 9.7959C117.441 9.91569 117.035 10.0667 116.628 10.249L115.839 8.63965C116.303 8.39486 116.821 8.20215 117.394 8.06152C117.972 7.9209 118.568 7.85059 119.183 7.85059ZM120.449 12.7178L119.527 12.749C118.756 12.7699 118.219 12.9079 117.917 13.1631C117.62 13.4183 117.472 13.7542 117.472 14.1709C117.472 14.5355 117.579 14.7959 117.792 14.9521C118.006 15.1032 118.285 15.1787 118.628 15.1787C119.139 15.1787 119.568 15.0277 119.917 14.7256C120.272 14.4235 120.449 13.9938 120.449 13.4365V12.7178ZM128.824 16.9209C127.959 16.9209 127.222 16.7646 126.613 16.4521C126.003 16.1344 125.54 15.6449 125.222 14.9834C124.904 14.3219 124.745 13.4756 124.745 12.4443C124.745 11.3766 124.925 10.5068 125.285 9.83496C125.649 9.15788 126.152 8.66048 126.792 8.34277C127.438 8.02507 128.186 7.86621 129.035 7.86621C129.639 7.86621 130.16 7.92611 130.597 8.0459C131.04 8.16048 131.425 8.2985 131.753 8.45996L131.05 10.3037C130.675 10.1527 130.326 10.0303 130.003 9.93652C129.68 9.83757 129.357 9.78809 129.035 9.78809C128.618 9.78809 128.272 9.88704 127.995 10.085C127.719 10.2777 127.514 10.5693 127.378 10.96C127.243 11.3506 127.175 11.8402 127.175 12.4287C127.175 13.0068 127.248 13.486 127.394 13.8662C127.54 14.2464 127.751 14.5303 128.027 14.7178C128.303 14.9001 128.639 14.9912 129.035 14.9912C129.529 14.9912 129.969 14.9261 130.355 14.7959C130.74 14.6605 131.115 14.473 131.48 14.2334V16.2725C131.115 16.5016 130.732 16.6657 130.331 16.7646C129.936 16.8688 129.433 16.9209 128.824 16.9209ZM135.894 4.6084V7.08496C135.894 7.51725 135.878 7.92871 135.847 8.31934C135.821 8.70996 135.8 8.986 135.785 9.14746H135.91C136.097 8.84538 136.318 8.60059 136.574 8.41309C136.834 8.22559 137.12 8.08757 137.433 7.99902C137.745 7.91048 138.081 7.86621 138.441 7.86621C139.071 7.86621 139.62 7.97819 140.089 8.20215C140.558 8.4209 140.923 8.76725 141.183 9.24121C141.443 9.70996 141.574 10.3193 141.574 11.0693V16.7646H139.191V11.6631C139.191 11.0381 139.076 10.5667 138.847 10.249C138.618 9.93132 138.264 9.77246 137.785 9.77246C137.305 9.77246 136.928 9.88444 136.652 10.1084C136.376 10.3271 136.18 10.6527 136.066 11.085C135.951 11.512 135.894 12.0355 135.894 12.6553V16.7646H133.511V4.6084H135.894ZM155.363 16.7646L154.535 14.0459H150.37L149.542 16.7646H146.933L150.964 5.2959H153.925L157.972 16.7646H155.363ZM153.956 12.0146L153.128 9.3584C153.076 9.18132 153.006 8.95475 152.917 8.67871C152.834 8.39746 152.748 8.11361 152.66 7.82715C152.576 7.53548 152.509 7.28288 152.456 7.06934C152.404 7.28288 152.331 7.5485 152.238 7.86621C152.149 8.17871 152.063 8.47559 151.98 8.75684C151.897 9.03809 151.837 9.23861 151.8 9.3584L150.98 12.0146H153.956ZM161.613 8.03027V16.7646H159.23V8.03027H161.613ZM160.425 4.6084C160.779 4.6084 161.084 4.69173 161.339 4.8584C161.594 5.01986 161.722 5.32454 161.722 5.77246C161.722 6.21517 161.594 6.52246 161.339 6.69434C161.084 6.861 160.779 6.94434 160.425 6.94434C160.066 6.94434 159.759 6.861 159.503 6.69434C159.253 6.52246 159.128 6.21517 159.128 5.77246C159.128 5.32454 159.253 5.01986 159.503 4.8584C159.759 4.69173 160.066 4.6084 160.425 4.6084ZM168.995 7.86621C169.115 7.86621 169.253 7.87402 169.41 7.88965C169.571 7.90007 169.701 7.91569 169.8 7.93652L169.62 10.1709C169.542 10.1449 169.43 10.1266 169.285 10.1162C169.144 10.1006 169.022 10.0928 168.917 10.0928C168.61 10.0928 168.311 10.1318 168.019 10.21C167.732 10.2881 167.475 10.4157 167.245 10.5928C167.016 10.7646 166.834 10.9938 166.699 11.2803C166.568 11.5615 166.503 11.9079 166.503 12.3193V16.7646H164.12V8.03027H165.925L166.277 9.49902H166.394C166.566 9.20215 166.779 8.93132 167.035 8.68652C167.295 8.43652 167.589 8.23861 167.917 8.09277C168.251 7.94173 168.61 7.86621 168.995 7.86621ZM176.245 7.86621C177.23 7.86621 178.024 8.24902 178.628 9.01465C179.238 9.78027 179.542 10.9027 179.542 12.3818C179.542 13.3714 179.399 14.2048 179.113 14.8818C178.826 15.5537 178.43 16.0615 177.925 16.4053C177.42 16.749 176.839 16.9209 176.183 16.9209C175.761 16.9209 175.399 16.8688 175.097 16.7646C174.795 16.6553 174.537 16.5173 174.324 16.3506C174.11 16.1787 173.925 15.9964 173.769 15.8037H173.644C173.686 16.012 173.717 16.2256 173.738 16.4443C173.759 16.6631 173.769 16.8766 173.769 17.085V20.6084H171.386V8.03027H173.324L173.66 9.16309H173.769C173.925 8.92871 174.115 8.71257 174.339 8.51465C174.563 8.31673 174.831 8.16048 175.144 8.0459C175.462 7.92611 175.829 7.86621 176.245 7.86621ZM175.48 9.77246C175.063 9.77246 174.732 9.8584 174.488 10.0303C174.243 10.2021 174.063 10.46 173.949 10.8037C173.839 11.1475 173.779 11.5824 173.769 12.1084V12.3662C173.769 12.9287 173.821 13.4053 173.925 13.7959C174.035 14.1865 174.214 14.4834 174.464 14.6865C174.719 14.8896 175.068 14.9912 175.511 14.9912C175.876 14.9912 176.175 14.8896 176.41 14.6865C176.644 14.4834 176.818 14.1865 176.933 13.7959C177.053 13.4001 177.113 12.9183 177.113 12.3506C177.113 11.4964 176.98 10.8532 176.714 10.4209C176.449 9.98861 176.037 9.77246 175.48 9.77246ZM189.449 12.3818C189.449 13.111 189.35 13.7568 189.152 14.3193C188.959 14.8818 188.675 15.3584 188.3 15.749C187.93 16.1344 187.482 16.4261 186.956 16.624C186.436 16.8219 185.847 16.9209 185.191 16.9209C184.576 16.9209 184.011 16.8219 183.495 16.624C182.985 16.4261 182.54 16.1344 182.16 15.749C181.785 15.3584 181.493 14.8818 181.285 14.3193C181.081 13.7568 180.98 13.111 180.98 12.3818C180.98 11.4131 181.152 10.5928 181.495 9.9209C181.839 9.24902 182.329 8.73861 182.964 8.38965C183.6 8.04069 184.357 7.86621 185.238 7.86621C186.055 7.86621 186.779 8.04069 187.41 8.38965C188.045 8.73861 188.542 9.24902 188.902 9.9209C189.266 10.5928 189.449 11.4131 189.449 12.3818ZM183.41 12.3818C183.41 12.9548 183.472 13.4365 183.597 13.8271C183.722 14.2178 183.917 14.512 184.183 14.71C184.449 14.9079 184.795 15.0068 185.222 15.0068C185.644 15.0068 185.985 14.9079 186.245 14.71C186.511 14.512 186.704 14.2178 186.824 13.8271C186.949 13.4365 187.011 12.9548 187.011 12.3818C187.011 11.8037 186.949 11.3245 186.824 10.9443C186.704 10.5589 186.511 10.2699 186.245 10.0771C185.98 9.88444 185.634 9.78809 185.206 9.78809C184.576 9.78809 184.118 10.0042 183.831 10.4365C183.55 10.8688 183.41 11.5173 183.41 12.3818ZM196.292 7.86621C196.412 7.86621 196.55 7.87402 196.706 7.88965C196.868 7.90007 196.998 7.91569 197.097 7.93652L196.917 10.1709C196.839 10.1449 196.727 10.1266 196.581 10.1162C196.441 10.1006 196.318 10.0928 196.214 10.0928C195.907 10.0928 195.607 10.1318 195.316 10.21C195.029 10.2881 194.772 10.4157 194.542 10.5928C194.313 10.7646 194.131 10.9938 193.995 11.2803C193.865 11.5615 193.8 11.9079 193.8 12.3193V16.7646H191.417V8.03027H193.222L193.574 9.49902H193.691C193.863 9.20215 194.076 8.93132 194.331 8.68652C194.592 8.43652 194.886 8.23861 195.214 8.09277C195.548 7.94173 195.907 7.86621 196.292 7.86621ZM202.363 15.0225C202.623 15.0225 202.876 14.9964 203.12 14.9443C203.37 14.8923 203.618 14.8271 203.863 14.749V16.5225C203.607 16.637 203.29 16.7308 202.91 16.8037C202.535 16.8818 202.123 16.9209 201.675 16.9209C201.154 16.9209 200.686 16.8376 200.269 16.6709C199.857 16.499 199.532 16.2048 199.292 15.7881C199.058 15.3662 198.941 14.7803 198.941 14.0303V9.81934H197.8V8.81152L199.113 8.01465L199.8 6.1709H201.324V8.03027H203.769V9.81934H201.324V14.0303C201.324 14.3636 201.417 14.6136 201.605 14.7803C201.798 14.9417 202.05 15.0225 202.363 15.0225ZM217.73 12.3818C217.73 13.111 217.631 13.7568 217.433 14.3193C217.24 14.8818 216.956 15.3584 216.581 15.749C216.212 16.1344 215.764 16.4261 215.238 16.624C214.717 16.8219 214.128 16.9209 213.472 16.9209C212.857 16.9209 212.292 16.8219 211.777 16.624C211.266 16.4261 210.821 16.1344 210.441 15.749C210.066 15.3584 209.774 14.8818 209.566 14.3193C209.363 13.7568 209.261 13.111 209.261 12.3818C209.261 11.4131 209.433 10.5928 209.777 9.9209C210.12 9.24902 210.61 8.73861 211.245 8.38965C211.881 8.04069 212.639 7.86621 213.519 7.86621C214.337 7.86621 215.061 8.04069 215.691 8.38965C216.326 8.73861 216.824 9.24902 217.183 9.9209C217.548 10.5928 217.73 11.4131 217.73 12.3818ZM211.691 12.3818C211.691 12.9548 211.753 13.4365 211.878 13.8271C212.003 14.2178 212.199 14.512 212.464 14.71C212.73 14.9079 213.076 15.0068 213.503 15.0068C213.925 15.0068 214.266 14.9079 214.527 14.71C214.792 14.512 214.985 14.2178 215.105 13.8271C215.23 13.4365 215.292 12.9548 215.292 12.3818C215.292 11.8037 215.23 11.3245 215.105 10.9443C214.985 10.5589 214.792 10.2699 214.527 10.0771C214.261 9.88444 213.915 9.78809 213.488 9.78809C212.857 9.78809 212.399 10.0042 212.113 10.4365C211.831 10.8688 211.691 11.5173 211.691 12.3818ZM224.66 7.86621C225.592 7.86621 226.342 8.12142 226.91 8.63184C227.477 9.13704 227.761 9.94954 227.761 11.0693V16.7646H225.378V11.6631C225.378 11.0381 225.264 10.5667 225.035 10.249C224.811 9.93132 224.456 9.77246 223.972 9.77246C223.243 9.77246 222.745 10.0199 222.48 10.5146C222.214 11.0094 222.081 11.723 222.081 12.6553V16.7646H219.699V8.03027H221.519L221.839 9.14746H221.972C222.16 8.84538 222.391 8.60059 222.667 8.41309C222.949 8.22559 223.259 8.08757 223.597 7.99902C223.941 7.91048 224.295 7.86621 224.66 7.86621ZM241.3 13.5928C241.3 14.2699 241.136 14.8584 240.808 15.3584C240.48 15.8584 240.001 16.2438 239.37 16.5146C238.745 16.7855 237.985 16.9209 237.089 16.9209C236.693 16.9209 236.305 16.8949 235.925 16.8428C235.55 16.7907 235.188 16.7152 234.839 16.6162C234.495 16.512 234.167 16.3844 233.855 16.2334V13.9834C234.397 14.223 234.959 14.4391 235.542 14.6318C236.126 14.8245 236.704 14.9209 237.277 14.9209C237.673 14.9209 237.99 14.8688 238.23 14.7646C238.475 14.6605 238.652 14.5173 238.761 14.335C238.87 14.1527 238.925 13.9443 238.925 13.71C238.925 13.4235 238.829 13.1787 238.636 12.9756C238.443 12.7725 238.178 12.5824 237.839 12.4053C237.506 12.2282 237.128 12.0381 236.706 11.835C236.441 11.71 236.152 11.5589 235.839 11.3818C235.527 11.1995 235.23 10.9782 234.949 10.7178C234.667 10.4574 234.436 10.1423 234.253 9.77246C234.076 9.39746 233.988 8.94954 233.988 8.42871C233.988 7.74642 234.144 7.16309 234.456 6.67871C234.769 6.19434 235.214 5.82454 235.792 5.56934C236.376 5.30892 237.063 5.17871 237.855 5.17871C238.449 5.17871 239.014 5.24902 239.55 5.38965C240.092 5.52507 240.657 5.72298 241.245 5.9834L240.464 7.86621C239.938 7.65267 239.467 7.48861 239.05 7.37402C238.634 7.25423 238.209 7.19434 237.777 7.19434C237.475 7.19434 237.217 7.24382 237.003 7.34277C236.79 7.43652 236.628 7.57194 236.519 7.74902C236.41 7.9209 236.355 8.12142 236.355 8.35059C236.355 8.62142 236.433 8.85059 236.589 9.03809C236.751 9.22038 236.99 9.39746 237.308 9.56934C237.631 9.74121 238.032 9.94173 238.511 10.1709C239.094 10.4469 239.592 10.736 240.003 11.0381C240.42 11.335 240.74 11.6865 240.964 12.0928C241.188 12.4938 241.3 12.9938 241.3 13.5928ZM246.785 7.86621C247.592 7.86621 248.287 8.02246 248.87 8.33496C249.454 8.64225 249.904 9.09017 250.222 9.67871C250.54 10.2673 250.699 10.986 250.699 11.835V12.9912H245.066C245.092 13.6631 245.292 14.1917 245.667 14.5771C246.048 14.9574 246.574 15.1475 247.245 15.1475C247.803 15.1475 248.313 15.0902 248.777 14.9756C249.24 14.861 249.717 14.6891 250.206 14.46V16.3037C249.774 16.5173 249.321 16.6735 248.847 16.7725C248.378 16.8714 247.808 16.9209 247.136 16.9209C246.261 16.9209 245.485 16.7594 244.808 16.4365C244.136 16.1136 243.607 15.6214 243.222 14.96C242.842 14.2985 242.652 13.4652 242.652 12.46C242.652 11.4391 242.824 10.5902 243.167 9.91309C243.516 9.23079 244.001 8.72038 244.62 8.38184C245.24 8.03809 245.962 7.86621 246.785 7.86621ZM246.8 9.56152C246.337 9.56152 245.951 9.70996 245.644 10.0068C245.342 10.3037 245.167 10.7699 245.12 11.4053H248.464C248.459 11.0511 248.394 10.736 248.269 10.46C248.149 10.1839 247.967 9.96517 247.722 9.80371C247.482 9.64225 247.175 9.56152 246.8 9.56152ZM255.019 16.7646H252.636V4.6084H255.019V16.7646ZM261.128 7.86621C261.936 7.86621 262.631 8.02246 263.214 8.33496C263.798 8.64225 264.248 9.09017 264.566 9.67871C264.884 10.2673 265.042 10.986 265.042 11.835V12.9912H259.41C259.436 13.6631 259.636 14.1917 260.011 14.5771C260.391 14.9574 260.917 15.1475 261.589 15.1475C262.147 15.1475 262.657 15.0902 263.12 14.9756C263.584 14.861 264.061 14.6891 264.55 14.46V16.3037C264.118 16.5173 263.665 16.6735 263.191 16.7725C262.722 16.8714 262.152 16.9209 261.48 16.9209C260.605 16.9209 259.829 16.7594 259.152 16.4365C258.48 16.1136 257.951 15.6214 257.566 14.96C257.186 14.2985 256.995 13.4652 256.995 12.46C256.995 11.4391 257.167 10.5902 257.511 9.91309C257.86 9.23079 258.344 8.72038 258.964 8.38184C259.584 8.03809 260.305 7.86621 261.128 7.86621ZM261.144 9.56152C260.68 9.56152 260.295 9.70996 259.988 10.0068C259.686 10.3037 259.511 10.7699 259.464 11.4053H262.808C262.803 11.0511 262.738 10.736 262.613 10.46C262.493 10.1839 262.311 9.96517 262.066 9.80371C261.826 9.64225 261.519 9.56152 261.144 9.56152ZM270.527 16.9209C269.662 16.9209 268.925 16.7646 268.316 16.4521C267.706 16.1344 267.243 15.6449 266.925 14.9834C266.607 14.3219 266.449 13.4756 266.449 12.4443C266.449 11.3766 266.628 10.5068 266.988 9.83496C267.352 9.15788 267.855 8.66048 268.495 8.34277C269.141 8.02507 269.889 7.86621 270.738 7.86621C271.342 7.86621 271.863 7.92611 272.3 8.0459C272.743 8.16048 273.128 8.2985 273.456 8.45996L272.753 10.3037C272.378 10.1527 272.029 10.0303 271.706 9.93652C271.384 9.83757 271.061 9.78809 270.738 9.78809C270.321 9.78809 269.975 9.88704 269.699 10.085C269.423 10.2777 269.217 10.5693 269.081 10.96C268.946 11.3506 268.878 11.8402 268.878 12.4287C268.878 13.0068 268.951 13.486 269.097 13.8662C269.243 14.2464 269.454 14.5303 269.73 14.7178C270.006 14.9001 270.342 14.9912 270.738 14.9912C271.232 14.9912 271.673 14.9261 272.058 14.7959C272.443 14.6605 272.818 14.473 273.183 14.2334V16.2725C272.818 16.5016 272.436 16.6657 272.035 16.7646C271.639 16.8688 271.136 16.9209 270.527 16.9209ZM278.894 15.0225C279.154 15.0225 279.407 14.9964 279.652 14.9443C279.902 14.8923 280.149 14.8271 280.394 14.749V16.5225C280.139 16.637 279.821 16.7308 279.441 16.8037C279.066 16.8818 278.654 16.9209 278.206 16.9209C277.686 16.9209 277.217 16.8376 276.8 16.6709C276.389 16.499 276.063 16.2048 275.824 15.7881C275.589 15.3662 275.472 14.7803 275.472 14.0303V9.81934H274.331V8.81152L275.644 8.01465L276.331 6.1709H277.855V8.03027H280.3V9.81934H277.855V14.0303C277.855 14.3636 277.949 14.6136 278.136 14.7803C278.329 14.9417 278.581 15.0225 278.894 15.0225ZM285.769 7.86621C286.576 7.86621 287.272 8.02246 287.855 8.33496C288.438 8.64225 288.889 9.09017 289.206 9.67871C289.524 10.2673 289.683 10.986 289.683 11.835V12.9912H284.05C284.076 13.6631 284.277 14.1917 284.652 14.5771C285.032 14.9574 285.558 15.1475 286.23 15.1475C286.787 15.1475 287.298 15.0902 287.761 14.9756C288.225 14.861 288.701 14.6891 289.191 14.46V16.3037C288.759 16.5173 288.305 16.6735 287.831 16.7725C287.363 16.8714 286.792 16.9209 286.12 16.9209C285.245 16.9209 284.469 16.7594 283.792 16.4365C283.12 16.1136 282.592 15.6214 282.206 14.96C281.826 14.2985 281.636 13.4652 281.636 12.46C281.636 11.4391 281.808 10.5902 282.152 9.91309C282.501 9.23079 282.985 8.72038 283.605 8.38184C284.225 8.03809 284.946 7.86621 285.769 7.86621ZM285.785 9.56152C285.321 9.56152 284.936 9.70996 284.628 10.0068C284.326 10.3037 284.152 10.7699 284.105 11.4053H287.449C287.443 11.0511 287.378 10.736 287.253 10.46C287.134 10.1839 286.951 9.96517 286.706 9.80371C286.467 9.64225 286.16 9.56152 285.785 9.56152ZM294.386 16.9209C293.412 16.9209 292.618 16.5407 292.003 15.7803C291.394 15.0146 291.089 13.8923 291.089 12.4131C291.089 10.9183 291.399 9.78809 292.019 9.02246C292.639 8.25163 293.449 7.86621 294.449 7.86621C294.865 7.86621 295.232 7.9235 295.55 8.03809C295.868 8.15267 296.141 8.30632 296.37 8.49902C296.605 8.69173 296.803 8.90788 296.964 9.14746H297.042C297.011 8.98079 296.972 8.736 296.925 8.41309C296.884 8.08496 296.863 7.74902 296.863 7.40527V4.6084H299.253V16.7646H297.425L296.964 15.6318H296.863C296.712 15.8714 296.522 16.0902 296.292 16.2881C296.068 16.4808 295.8 16.6344 295.488 16.749C295.175 16.8636 294.808 16.9209 294.386 16.9209ZM295.222 15.0225C295.873 15.0225 296.331 14.8298 296.597 14.4443C296.868 14.0537 297.011 13.4678 297.027 12.6865V12.4287C297.027 11.5798 296.897 10.9313 296.636 10.4834C296.376 10.0303 295.891 9.80371 295.183 9.80371C294.657 9.80371 294.245 10.0303 293.949 10.4834C293.652 10.9365 293.503 11.5902 293.503 12.4443C293.503 13.2985 293.652 13.9417 293.949 14.374C294.251 14.8063 294.675 15.0225 295.222 15.0225ZM315.566 10.9443C315.566 12.2308 315.318 13.3063 314.824 14.1709C314.334 15.0303 313.623 15.6787 312.691 16.1162C311.759 16.5485 310.636 16.7646 309.324 16.7646H306.089V5.34277H309.675C310.873 5.34277 311.912 5.55632 312.792 5.9834C313.673 6.40527 314.355 7.03288 314.839 7.86621C315.324 8.69434 315.566 9.72038 315.566 10.9443ZM313.05 11.0068C313.05 10.1631 312.925 9.47038 312.675 8.92871C312.43 8.38184 312.066 7.97819 311.581 7.71777C311.102 7.45736 310.509 7.32715 309.8 7.32715H308.511V14.7646H309.55C310.732 14.7646 311.61 14.4495 312.183 13.8193C312.761 13.1891 313.05 12.2516 313.05 11.0068ZM321.324 7.85059C322.495 7.85059 323.394 8.10579 324.019 8.61621C324.644 9.12663 324.956 9.90267 324.956 10.9443V16.7646H323.292L322.831 15.5771H322.769C322.519 15.8896 322.264 16.1449 322.003 16.3428C321.743 16.5407 321.443 16.6865 321.105 16.7803C320.766 16.874 320.355 16.9209 319.87 16.9209C319.355 16.9209 318.891 16.8219 318.48 16.624C318.074 16.4261 317.753 16.124 317.519 15.7178C317.285 15.3063 317.167 14.7855 317.167 14.1553C317.167 13.2282 317.493 12.5459 318.144 12.1084C318.795 11.6657 319.772 11.4209 321.074 11.374L322.589 11.3271V10.9443C322.589 10.486 322.469 10.1501 322.23 9.93652C321.99 9.72298 321.657 9.61621 321.23 9.61621C320.808 9.61621 320.394 9.67611 319.988 9.7959C319.581 9.91569 319.175 10.0667 318.769 10.249L317.98 8.63965C318.443 8.39486 318.962 8.20215 319.535 8.06152C320.113 7.9209 320.709 7.85059 321.324 7.85059ZM322.589 12.7178L321.667 12.749C320.897 12.7699 320.36 12.9079 320.058 13.1631C319.761 13.4183 319.613 13.7542 319.613 14.1709C319.613 14.5355 319.719 14.7959 319.933 14.9521C320.147 15.1032 320.425 15.1787 320.769 15.1787C321.279 15.1787 321.709 15.0277 322.058 14.7256C322.412 14.4235 322.589 13.9938 322.589 13.4365V12.7178ZM331.097 15.0225C331.357 15.0225 331.61 14.9964 331.855 14.9443C332.105 14.8923 332.352 14.8271 332.597 14.749V16.5225C332.342 16.637 332.024 16.7308 331.644 16.8037C331.269 16.8818 330.857 16.9209 330.41 16.9209C329.889 16.9209 329.42 16.8376 329.003 16.6709C328.592 16.499 328.266 16.2048 328.027 15.7881C327.792 15.3662 327.675 14.7803 327.675 14.0303V9.81934H326.535V8.81152L327.847 8.01465L328.535 6.1709H330.058V8.03027H332.503V9.81934H330.058V14.0303C330.058 14.3636 330.152 14.6136 330.339 14.7803C330.532 14.9417 330.785 15.0225 331.097 15.0225ZM337.972 7.86621C338.779 7.86621 339.475 8.02246 340.058 8.33496C340.641 8.64225 341.092 9.09017 341.41 9.67871C341.727 10.2673 341.886 10.986 341.886 11.835V12.9912H336.253C336.279 13.6631 336.48 14.1917 336.855 14.5771C337.235 14.9574 337.761 15.1475 338.433 15.1475C338.99 15.1475 339.501 15.0902 339.964 14.9756C340.428 14.861 340.904 14.6891 341.394 14.46V16.3037C340.962 16.5173 340.509 16.6735 340.035 16.7725C339.566 16.8714 338.995 16.9209 338.324 16.9209C337.449 16.9209 336.673 16.7594 335.995 16.4365C335.324 16.1136 334.795 15.6214 334.41 14.96C334.029 14.2985 333.839 13.4652 333.839 12.46C333.839 11.4391 334.011 10.5902 334.355 9.91309C334.704 9.23079 335.188 8.72038 335.808 8.38184C336.428 8.03809 337.149 7.86621 337.972 7.86621ZM337.988 9.56152C337.524 9.56152 337.139 9.70996 336.831 10.0068C336.529 10.3037 336.355 10.7699 336.308 11.4053H339.652C339.647 11.0511 339.581 10.736 339.456 10.46C339.337 10.1839 339.154 9.96517 338.91 9.80371C338.67 9.64225 338.363 9.56152 337.988 9.56152Z" fill="#5E6282"/>
</svg>
