<svg width="66" height="68" viewBox="0 0 66 68" fill="none" xmlns="http://www.w3.org/2000/svg">
<rect y="0.549316" width="65.2051" height="66.5924" rx="13" fill="#F0BB1F"/>
<path d="M18.791 24.794C18.3795 24.794 18.0429 24.4574 18.0354 24.0459V19.3405C18.0354 18.9216 18.3721 18.585 18.791 18.585H23.4964C23.9078 18.585 24.2445 18.9216 24.2445 19.3405V20.9788H42.3479V19.3405C42.3479 18.9291 42.6845 18.5924 43.096 18.585H47.8014C48.2128 18.585 48.5495 18.9216 48.5569 19.3405V24.0459C48.5569 24.4574 48.2203 24.794 47.8014 24.794H46.1631V42.8974H47.8014C48.2128 42.8974 48.5495 43.2341 48.5569 43.6455V48.3509C48.5569 48.7624 48.2203 49.099 47.8014 49.1065H43.096C42.6845 49.1065 42.3479 48.7698 42.3479 48.3509V46.7126H24.2445V48.3509C24.2445 48.7624 23.9078 49.099 23.4964 49.1065H18.791C18.3795 49.1065 18.0429 48.7698 18.0354 48.3509V43.6455C18.0354 43.2341 18.3721 42.8974 18.791 42.8974H20.4293V24.794H18.791ZM47.0608 23.2978V20.0811H43.8441V23.2978H47.0608ZM43.8441 47.6103H47.0608V44.3936H43.8441V47.6103ZM24.2445 43.6455V45.2165H42.3479V43.6455C42.3479 43.2341 42.6845 42.8974 43.096 42.8974H44.6669V24.794H43.096C42.6845 24.794 42.3479 24.4574 42.3479 24.0459V22.475H24.2445V24.0459C24.2445 24.4574 23.9078 24.794 23.4964 24.794H21.9254V42.8974H23.4964C23.9078 42.8974 24.2445 43.2341 24.2445 43.6455ZM19.5316 44.3936V47.6103H22.7483V44.3936H19.5316ZM22.7483 23.2978V20.0811H19.5316V23.2978H22.7483Z" fill="white"/>
</svg>
