<svg width="36" height="36" viewBox="0 0 36 36" fill="none" xmlns="http://www.w3.org/2000/svg">
<circle cx="18" cy="18" r="18" fill="#F5F5F5"/>
<path d="M23.3433 13.2426L17.0258 19.5835C16.9534 19.5415 16.8772 19.5064 16.7983 19.4785L12.6275 18.0668C12.5013 18.0352 12.3894 17.9623 12.3094 17.8598C12.2294 17.7573 12.186 17.631 12.186 17.501C12.186 17.3709 12.2294 17.2446 12.3094 17.1421C12.3894 17.0396 12.5013 16.9667 12.6275 16.9351L22.9758 13.2543C23.0435 13.2313 23.1144 13.2195 23.1858 13.2193C23.2392 13.2184 23.2924 13.2263 23.3433 13.2426Z" fill="#84829A"/>
<path d="M23.7459 14.0242L20.065 24.3842C20.0244 24.505 19.9454 24.6091 19.8401 24.6807C19.7348 24.7524 19.6089 24.7875 19.4817 24.7809C19.353 24.7868 19.226 24.7499 19.1205 24.6761C19.015 24.6022 18.9369 24.4955 18.8983 24.3726L17.51 20.2017C17.4821 20.1228 17.447 20.0467 17.405 19.9742L23.7575 13.6567C23.7933 13.7773 23.7893 13.9062 23.7459 14.0242Z" fill="#84829A"/>
</svg>
